<svg xmlns="http://www.w3.org/2000/svg" viewBox="0 0 1706 1279"><path d="M833.75 1.893c-2.554 2.59-2.138 3.591.715 1.722 3.438-2.253 4.535-2.023 4.535.952 0 2.085-.364 2.452-1.937 1.953-2.578-.818-6.062 1.462-6.068 3.971-.003 1.105-1.097 3.359-2.432 5.009-2.295 2.838-2.521 2.907-4.172 1.287-1.622-1.592-1.627-1.759-.069-2.357 2.03-.779 2.224-2.43.285-2.43-.766 0-1.652.675-1.969 1.5-.586 1.528-3.292 1.954-5.946.935-2.07-.794-.901-4.435 1.425-4.435 2.621 0 2.349-1.465-.635-3.42-2.493-1.634-2.525-1.617-3.211 1.635-.382 1.807-.608 3.595-.503 3.974.269.967-3.775 2.138-4.585 1.327-.366-.366.114-1.103 1.068-1.637 1.607-.899 1.617-1.151.127-3.425C808.074 4.937 807 5.417 807 9.965c0 2.962-.514 4.24-2.032 5.052-1.117.598-1.964 1.626-1.881 2.285.562 4.48-.11 5.438-4.199 5.986-2.496.335-5.169 1.565-6.804 3.132-3.208 3.073-4.084 3.221-4.084.688 0-1.114.925-2.142 2.25-2.501 1.237-.335 3.825-1.996 5.75-3.691 3.178-2.798 3.27-3.019 1-2.405-7.441 2.013-8.316 1.923-7.796-.799.474-2.48.418-2.51-1.875-1.008-1.848 1.211-2.115 1.849-1.224 2.922 1.265 1.525-.371 4.374-2.512 4.374-.639 0-1.959 1.35-2.934 3-1.734 2.936-3.659 3.988-3.659 2 0-.55-.675-1-1.5-1s-1.5.675-1.5 1.5.675 1.5 1.5 1.5c1.736 0 1.999 1.573.426 2.546-.591.365-2.066-.268-3.278-1.407-2.244-2.108-9.526-2.569-12.411-.785-1.698 1.049-3.272-.099-2.586-1.886.351-.915-.042-1.468-1.044-1.468-.884 0-1.607.67-1.607 1.489 0 .976-.86 1.417-2.5 1.282-1.375-.114-2.5-.747-2.5-1.406 0-.659-.562-1.405-1.25-1.657-.98-.359-.988-.736-.039-1.744.953-1.012.853-1.893-.465-4.125-1.804-3.053-3.246-3.696-3.246-1.446 0 .766-.641 1.639-1.425 1.94-1.552.596-4.575-3.255-4.575-5.829 0-2.01-2.799-3.105-4.244-1.66-.812.812-.69 1.584.456 2.882.861.976 1.9 3.343 2.308 5.26.857 4.021 3.418 7.937 5.222 7.983.682.017 1.769.877 2.415 1.911 1.068 1.71 1.473 1.755 4.476.5 5.856-2.447 5.831-1.479-.07 2.746-5.353 3.834-5.72 4.349-5.164 7.25.329 1.718.261 2.629-.15 2.024-1.524-2.239-8.243-1.139-8.246 1.35-.003 2.611-2.485 3.044-3.424.597-.578-1.508-.751-1.494-1.954.151-1.304 1.784-3.392.553-2.236-1.319.592-.957-2.995-7.186-4.124-7.164-1.367.028-3.375 1.645-3.199 2.577.434 2.305-.329 3.309-3.816 5.016-2.062 1.009-5.308 1.976-7.212 2.147-4.914.442-6.757 5.245-2.013 5.245 2.517 0 4.975 1.041 4.975 2.107 0 .491-.914.893-2.031.893-1.118 0-2.313.732-2.656 1.626-.516 1.346-1.624 1.522-6.418 1.021-7.367-.77-9.191.648-8.268 6.425.691 4.316.363 4.599-2.912 2.526-4.297-2.719-8.334-2.924-10.56-.534-1.655 1.776-2.694 2.057-5.594 1.513-3.436-.644-4.866.498-2.474 1.977.598.369.872 1.496.608 2.503-.658 2.519 5.161 3.952 6.48 1.596 1.279-2.286 17.821-1.917 17.823.397.001.853-.509 2.061-1.134 2.686-.847.847-.739 1.532.429 2.7 1.825 1.825 4.377 2.053 4.915.439.207-.619 1.602-1.125 3.102-1.125 3.295 0 4.515-1.497 2.003-2.458-2.224-.852-5.3-4.505-4.662-5.537.978-1.582 4.55-.703 5.059 1.245.666 2.545 4.209 2.624 7.405.166 4.492-3.455 8.402-4.889 10.856-3.981 1.275.472 3.098.611 4.05.308 1.152-.365 1.899.092 2.232 1.367.445 1.702.991 1.816 4.874 1.022 9.93-2.03 15.127-2.254 16.273-.703.605.819 2.427 1.82 4.048 2.224 2.297.572 2.628.94 1.5 1.666-1.957 1.258.355 2.826 4.552 3.087 1.65.102 3.9.239 5 .304 3.368.2 8.929 1.714 10.274 2.798.701.565 1.525.776 1.831.47.956-.956-1.596-4.728-3.199-4.728-.838 0-1.246-.45-.906-1 .34-.55-.069-1-.91-1-1.008 0-1.312-.56-.894-1.65.521-1.359.174-1.534-1.97-.996-1.432.359-2.883.202-3.224-.35-.341-.552-.143-1.004.439-1.004s1.059-.445 1.059-.988c0-.544-1.013-.881-2.25-.75-1.797.19-2.25-.265-2.25-2.262 0-2.648.125-2.674 7.5-1.573 2.83.423 3.147.316 1.655-.555-1.699-.992-1.598-1.229 1.274-2.975C781.136 59.73 790 61.036 790 64.97c0 .841 1.154 1.114 3.531.837 2.707-.316 3.408-.089 3 .972-.292.761-.531 1.573-.531 1.803 0 .23-.675.418-1.5.418s-1.5.45-1.5 1c0 1.338 1.004 1.212 4-.5 1.375-.786 3.76-1.445 5.3-1.465 1.539-.019 4.14-.728 5.779-1.576 4.319-2.233 5.33-.865 2.231 3.019-1.963 2.46-4.193 3.787-8.301 4.94-5.958 1.671-12.061 5.303-7.009 4.17 1.375-.308 3.089-.567 3.809-.574.72-.008 1.031-.464.691-1.014-.345-.558.403-.993 1.691-.985 1.858.013 2.016.205.809.985-.879.568-1.012.976-.321.985.648.008 1.825-.632 2.616-1.423 3.014-3.013 25.257-7.137 22.849-4.236-.719.867-3.296 1.874-5.726 2.239-2.43.364-4.418.896-4.418 1.181 0 1.364 4.625 4.281 7.705 4.859 3.127.586 3.387.891 2.791 3.269-.362 1.442-.794 2.757-.959 2.923-.581.581-5.537-1.023-5.537-1.792 0-2.029-6.699-1.652-10.992.619-4.412 2.334-4.438 2.376-1.441 2.376 1.678 0 3.924.661 4.992 1.468 1.067.808 3.741 1.476 5.941 1.485 2.852.012 3.577-.251 2.528-.915-2.831-1.79 1.469-2.225 11.137-1.127 14.748 1.676 22.308 3.046 22.668 4.107.405 1.192 8.167 1.328 8.167.144 0-1.596 8.739-1.284 9.36.334.32.834 1.817 1.511 3.359 1.519 2.163.012 2.448.231 1.281.985-2.225 1.438-.311 1.207 2.069-.25 1.711-1.048 2.195-.981 2.987.412.52.914 2.804 1.976 5.076 2.36 2.906.491 3.721.957 2.749 1.573-.941.596-.266.874 2.119.874 2.625 0 3.125-.242 2-.969-1.135-.734-.695-.973 1.809-.985 2.215-.01 3.077.36 2.608 1.119-.486.786.264.993 2.441.674 1.728-.254 3.142-.155 3.142.221 0 .375 2.813.975 6.25 1.334 8.622.899 13.403 1.571 19.25 2.704 2.75.533 7.925.912 11.5.842 3.575-.07 7.625.347 9 .928 6.023 2.542 26.698 6.46 27.473 5.206.875-1.415 26.069 2.746 30.634 5.06.884.448 5.155.897 9.491.997 4.335.101 8.562.535 9.392.964 1.471.761 9.614 3.218 21.26 6.414 3.162.868 5.75 1.973 5.75 2.457 0 .483 2.588 1.66 5.75 2.615 3.162.955 6.751 2.349 7.974 3.099 1.223.749 4.724 2.014 7.779 2.81 5.864 1.527 10.048 4.022 12.441 7.418.795 1.127 2.725 2.331 4.29 2.674 2.193.482 2.711 1.047 2.26 2.466-.482 1.521.992 2.588 8.461 6.125 6.175 2.925 9.045 4.824 9.045 5.987 0 2.389 9.78 9.871 12.903 9.871.569 0 .813-.576.543-1.28-.309-.805.445-1.358 2.031-1.489 1.388-.115 2.523.263 2.523.839 0 .577.521.726 1.158.333.779-.482.987-.067.638 1.27-.651 2.49 1.631 5.799 3.292 4.773.752-.465.964-.339.55.33-.369.597-.213 1.368.346 1.714.559.345 1.016 1.726 1.016 3.069 0 3.427 1.708 3.045 2.5-.559.859-3.91 3.035-3.811 5.511.25 1.09 1.787 1.983 2.857 1.985 2.378.002-.48.679-.313 1.504.372 2.202 1.828 2.004 6.099-.25 5.375-.963-.309-.289.423 1.496 1.627 1.923 1.297 3.578 3.475 4.059 5.344.56 2.173 1.503 3.254 3.032 3.477 1.22.178 3.396 1.415 4.836 2.75 1.441 1.335 3.003 2.427 3.473 2.427.47 0 .869.787.888 1.75.019.963.903 3.55 1.966 5.75s1.947 4.772 1.966 5.715c.019.943 1.047 2.233 2.284 2.867 3.155 1.616 5.702 5.016 5.728 7.649.016 1.589.811 2.429 2.762 2.919 3.373.846 5.26 2.638 5.26 4.995 0 2.418 3.085 10.355 4.025 10.355.414 0 1.046 1.688 1.404 3.75 1.055 6.068 2.689 9.419 4.293 8.803 1.115-.428 1.3.071.826 2.231-.375 1.704.022 4.052 1.025 6.061 1.917 3.844 2.947 3.652 1.455-.271-1.717-4.516-1.072-5.323.975-1.22 1.058 2.119 2.387 4.41 2.952 5.092.565.681.796 1.47.512 1.754-.283.283.171 1.084 1.009 1.78 1.68 1.394 2.119 3.506.524 2.52-.55-.34-1-.179-1 .358 0 .536.502 1.143 1.115 1.347.612.204 1.308 2.133 1.545 4.286.238 2.153.911 4.492 1.497 5.198.586.706.863 2.977.616 5.047-.248 2.07-.097 4.439.334 5.264.431.825 1.266 7.35 1.856 14.5.589 7.15 1.594 16.6 2.232 21 .637 4.4 1.152 12.05 1.144 17-.015 9.059-.264 26.856-.44 31.5-.452 11.963-.225 22.847.511 24.5 1.323 2.967 1.551 4.321 2.02 12 .266 4.359 1.796 11.15 4.055 18 6.125 18.572 10.744 39.654 13.365 61 .962 7.836 3.238 22.06 5.119 32 .52 2.75 2.09 10.92 3.488 18.156 1.399 7.236 2.56 14.661 2.581 16.5.021 1.839 1.155 8.969 2.52 15.844 1.366 6.875 2.962 15.65 3.548 19.5 1.202 7.901 1.894 9.492 1.894 4.358 0-1.912.682-4.349 1.514-5.417.98-1.255 1.422-1.428 1.25-.488-.145.8.411 1.519 1.236 1.598.825.079 2.063.213 2.75.297.688.083 1.25 1.019 1.25 2.079 0 1.059.7 2.072 1.555 2.25.989.205-.494 1.777-4.082 4.323l-5.635 4 .594 7c.327 3.85.876 21.437 1.222 39.082.658 33.625 1.372 38.745 4.768 34.168.714-.962 2.011-1.75 2.882-1.75.87 0 2.38-1.35 3.355-3 .975-1.65 2.125-3 2.557-3 .431 0 .784-.497.784-1.105s1.253-2.97 2.785-5.25c1.532-2.28 3.386-5.607 4.121-7.395.735-1.787 1.732-3.25 2.215-3.25.484 0 .879-.717.879-1.592 0-.876.869-2.697 1.93-4.046 1.964-2.497 6.338-13.417 7.555-18.862.369-1.65 1.367-3.773 2.218-4.717.851-.944 1.541-2.969 1.535-4.5-.007-1.531.261-3.233.596-3.783.334-.55.746-1.885.914-2.966.168-1.082.968-2.978 1.779-4.215 2.468-3.768 2.115-5.03-2.958-10.572-1.567-1.711-1.946-3.673-2.009-10.387-.103-11.188-3.128-13.432-12.032-8.925-4.737 2.399-5.485 1.983-3.104-1.72 1.238-1.924 1.402-5.309.642-13.215-.053-.55-.499-.365-.99.411-.942 1.488-3.059-4.311-3.07-8.411-.003-1.101-.673-5.151-1.489-9-2.339-11.045-2.139-12.286 1.336-8.285 1.57 1.807 3.386 4.298 4.036 5.535.65 1.237 1.872 2.25 2.716 2.25 2.401 0 9.65 5.398 14.055 10.467 3.117 3.587 4.865 7.207 7.879 16.321 2.13 6.442 4.286 12.275 4.79 12.962 1.092 1.491 6.292 1.672 7.171.25.34-.55 1.769-1 3.177-1 3.148 0 9.895-6.448 10.889-10.406.382-1.525.203-4.419-.399-6.433-.601-2.014-1.795-9.286-2.653-16.161-.858-6.875-2.003-14.75-2.546-17.5-2.928-14.851-4.958-26.843-4.603-27.198.221-.221-.03-2.067-.557-4.102-1.421-5.484-2.879-12.302-3.358-15.7-.62-4.399-1.533-8.791-2.182-10.5-.847-2.228-1.235-4.209-1.371-7-.067-1.375-.507-4.75-.978-7.5-.472-2.75-1.078-7.06-1.348-9.578-.269-2.518-.958-5.81-1.53-7.315-.573-1.505-1.041-4.762-1.041-7.238 0-2.475-.408-5.263-.907-6.195-.499-.932-1.139-3.715-1.424-6.184-.284-2.47-.813-6.065-1.175-7.99-.361-1.925-1.506-8-2.544-13.5s-2.085-11.8-2.327-14c-.243-2.2-.688-4.675-.991-5.5-.302-.825-.769-4.2-1.037-7.5-.268-3.3-1.158-9.15-1.978-13-.821-3.85-1.753-8.818-2.072-11.04-.318-2.222-.815-5.147-1.104-6.5-.529-2.478-2.424-13.195-2.435-13.769-.003-.17-.423-.051-.932.263-.51.315-1.182-2.021-1.494-5.19-.311-3.17-1.221-9.589-2.021-14.264-2.154-12.589-2.579-15.374-3.548-23.293-.485-3.964-1.77-12.382-2.854-18.707-1.085-6.325-2.725-17.125-3.645-24-.92-6.875-2.124-14.3-2.676-16.5-.551-2.2-1.2-6.475-1.442-9.5-.242-3.025-.865-7.975-1.386-11-.829-4.819-1.807-12.038-3.59-26.5-.272-2.2-.923-5.35-1.448-7-.94-2.952-1.131-4.037-2.463-14-.367-2.75-1.502-8.6-2.522-13-1.02-4.4-2.116-10.025-2.434-12.5-1.718-13.351-7.531-45.214-8.618-47.236-.513-.955-.933-2.445-.933-3.309 0-.865-.453-1.293-1.007-.951-.554.343-1.277-.081-1.607-.941-.749-1.95-2.386-2.051-2.386-.146 0 .779-.439 1.566-.975 1.75-1.404.48-1.52 25.168-.121 25.634 1.309.437 1.45 3.412.226 4.749-.498.543-.058 6.729 1.027 14.45 1.238 8.802 1.698 16.048 1.322 20.821-.516 6.571-.573 20.386-.278 67.282.087 13.792-.053 14.902-2.518 20-1.435 2.968-2.626 4.609-2.646 3.647-.021-.962-.416-1.75-.879-1.75s-1.365-1.748-2.005-3.885c-.772-2.575-1.892-4.075-3.323-4.449-1.714-.448-1.921-.852-1.003-1.957 1.506-1.815.518-2.709-2.994-2.709-3.19 0-3.323-.242-1.627-2.958.993-1.59.877-2.293-.661-3.992-2.096-2.317-3.529-1.941-1.576.413 2.233 2.691.44 4.865-3.487 4.228-1.915-.311-3.482-.144-3.482.372 0 .515-.675.937-1.5.937s-1.5.675-1.5 1.5c0 1.951-3.613 1.951-4.362 0-.316-.825-.308-2.197.019-3.048.341-.889-.178-2.112-1.219-2.873-1.717-1.256-1.694-1.363.43-2.037 2.804-.89 2.214-3.153-.712-2.729-1.564.227-2.434-.415-3.164-2.334-1.188-3.124-.58-4.479 2.008-4.479 2.91 0 3.434-1.947 1.106-4.116-2.319-2.16-2.636-3.438-1.09-4.394 1.477-.913.182-2.49-2.044-2.49-1.177 0-1.714-.51-1.399-1.329.28-.731-1.102-3.089-3.073-5.241-5.594-6.106-5.824-10.57-.668-12.917 2.327-1.06 2.983-2.676.918-2.263-.687.138-1.105-.425-.929-1.25.258-1.203.07-1.252-.95-.25-2.292 2.254-8.871-.409-8.871-3.591 0-.561-1.008-1.164-2.239-1.339-2.634-.376-6.462-7.001-6.944-12.017-.295-3.074-.542-3.28-3.567-2.978-3.665.367-4.566-1.917-1.5-3.8 1.255-.771 1.325-.999.25-.807-.825.148-1.612-.066-1.75-.475-.596-1.771-.111-2.554 2-3.232 2.139-.687 2.152-.747.25-1.216-3.503-.863-8.5-3.489-8.5-4.468 0-.52.45-.667 1-.327s1 .141 1-.441-.477-1.059-1.059-1.059-.781-.45-.441-1 1.436-1 2.437-1c1 0 2.378-.675 3.063-1.5 2.484-2.993 9.637-.323 8.321 3.105-.377.985-.051 1.229 1.068.799 2.055-.788 2.04-.905-.577-4.444-1.503-2.033-3.05-2.96-4.941-2.96-1.514 0-3.045-.472-3.401-1.049-.895-1.448-3.506.791-2.867 2.458.382.995-.793 1.056-5.559.288-3.324-.535-6.044-1.486-6.044-2.113 0-1.294-3.548-4.584-4.943-4.584-1.831 0-5.436-6.148-4.092-6.978.99-.612.98-.938-.049-1.574-.761-.47-1.46-.315-1.69.375-.677 2.03-2.766 1.291-5.038-1.783-2.639-3.57-2.808-5.359-.438-4.655.963.286 3.1.769 4.75 1.073 2.928.539 2.915.514-.5-1.065-1.925-.89-4.523-2.01-5.773-2.489-1.758-.675-2.14-1.402-1.686-3.212.731-2.911-.834-4.229-5.955-5.017-5.365-.826-6.228-1.995-3.419-4.637 1.735-1.632 3.146-2.066 5.505-1.692 2.182.346 3.343.058 3.719-.922.403-1.051-.299-1.424-2.682-1.424-2.145 0-3.647-.671-4.477-2-1.545-2.474-6.814-2.689-9.363-.381-1.179 1.067-2.654 1.401-4.329.98-2.946-.739-3.318-3.24-.79-5.313 1.618-1.327 1.576-1.397-.561-.938-2.744.59-4.01-1.654-2.178-3.861.856-1.032 3.187-1.487 7.611-1.487 3.508 0 6.378-.392 6.378-.871 0-.744-7.875-2.21-14.5-2.698-1.1-.081-2.445-.212-2.99-.289-.544-.078.243-1.285 1.75-2.682 3.731-3.46 3.448-4.46-1.26-4.46-5.704 0-5.392-2.621.488-4.101 2.468-.622 4.295-1.441 4.06-1.821-.609-.986-7.548-.038-7.548 1.031 0 .49-.9.891-2 .891s-2 .456-2 1.013c0 .604-1.382.436-3.418-.414-1.881-.786-3.647-1.201-3.925-.923-.868.868-4.718-.768-4.113-1.748.316-.51-.626-.928-2.092-.928-2.044 0-2.521-.377-2.046-1.615.535-1.394.012-1.525-3.804-.953-5.061.759-7.205-.861-2.409-1.821 2.979-.595 3.051-.712 1.259-2.022-1.776-1.299-1.64-1.464 2.073-2.506 7.457-2.093 9.807-6.083 3.583-6.083-3.42 0-4.436-.9-2.987-2.646 1.444-1.74-1.739-3.136-3.388-1.487-.623.623-1.761 1.133-2.529 1.133-.767 0-2.723.945-4.345 2.101l-2.95 2.1-1.76-2.03c-1.23-1.418-2.195-1.754-3.205-1.115-2.32 1.468-6.944 1.137-6.944-.497 0-2.223-1.111-2.419-6.229-1.099l-4.729 1.22.572-2.59a118.45 118.45 0 0 1 1.046-4.34c.261-.963-.006-1.75-.593-1.75s-1.067-.675-1.067-1.5c0-1.108-1.16-1.5-4.441-1.5-2.443 0-4.719-.45-5.059-1-.34-.55-1.972-1-3.626-1-2.554 0-2.913-.303-2.374-2 .674-2.125-1.799-2.943-3.004-.994-.586.949-9.145 1.19-10.735.302-.406-.227-.017-1.514.865-2.86 1.528-2.331 1.503-2.448-.511-2.448-1.163 0-2.115.45-2.115 1s-.675 1-1.5 1-1.5-.486-1.5-1.079c0-.68-1.113-.836-3-.421s-3 .259-3-.421c0-.593.44-1.079.977-1.079 1.293 0 4.466-4.89 3.683-5.674-.337-.336-1.241-.089-2.009.549-.769.638-2.075.899-2.904.581-.898-.344-2.28.406-3.423 1.859-2.987 3.798-7.707 4.382-11.259 1.393-2.138-1.799-2.621-2.752-1.808-3.565 1.873-1.873.068-2.405-3.815-1.124-2.05.677-3.905 2.035-4.171 3.054-.301 1.15-2.401 2.467-5.626 3.527-2.83.929-6.578 2.935-8.329 4.457-3.344 2.905-7.058 4.534-8.058 3.534-.325-.325.071-.591.881-.591s2.997-1.125 4.861-2.5l3.389-2.5-5.945-.105-5.944-.105 4-1.318c2.2-.725 5.278-1.353 6.84-1.395 1.63-.044 3.583-.995 4.584-2.232.96-1.185 2.63-2.22 3.71-2.3 1.081-.079 2.956-1.135 4.166-2.345 2.445-2.445 2.434-2.448-3.572-1.287-2.349.455-4.476.495-4.726.09-.495-.801 2.894-4.243 3.579-3.635.231.204 1.544-.747 2.919-2.115l2.5-2.486-2.968.69c-3.751.873-12.933 5.167-17.625 8.245-2.217 1.454-4.323 2.117-5.5 1.733-1.309-.428-1.508-.336-.633.294 1.405 1.013-.324 3.006-4.458 5.143-3.768 1.946-3.867 1.241-.278-1.962l3.462-3.091-4.5 2.54c-2.475 1.396-4.388 3.012-4.25 3.59.137.578-.446 1.051-1.297 1.051-1.645 0 1.112-4.898 2.797-4.969.413-.017 1.545-.819 2.517-1.781.971-.962 3.055-2.587 4.631-3.609 2.049-1.33 2.507-2.082 1.606-2.639-1.477-.912-.479-3.002 1.433-3.002.725 0 1.859-.651 2.519-1.447 2.056-2.477-6.989 2.369-12.956 6.941-5.85 4.483-14.659 9.419-10.359 5.805 1.177-.989 5.631-4.499 9.896-7.799 5.151-3.985 7.203-6.109 6.109-6.323-2.364-.465-2.038-1.717 1.104-4.241l2.75-2.209-4.324.551c-3.349.427-4.209.251-3.813-.78 1.045-2.725-2.185-2.23-4.323.661-2.518 3.406-2.182 4.523.868 2.89 1.842-.985 2.052-.852 1.836 1.169-.186 1.742.23 2.242 1.756 2.111 1.664-.142 1.496.234-1 2.238-1.7 1.364-3.737 2.174-4.7 1.869-.935-.296-2.96.109-4.5.902-4.504 2.318-11.01 3.919-9.235 2.272 1.787-1.658 10.954-4.61 14.314-4.61 1.377 0 2.777-.444 3.113-.986.365-.592-.611-.845-2.441-.632-1.809.211-3.051-.104-3.051-.773 0-1.943-3.813-3.726-5.75-2.689-4.353 2.33-11.93 5.546-13.729 5.828-1.088.17-2.415.746-2.95 1.281-.534.534-1.669.967-2.521.962-.853-.006.78-1.346 3.628-2.98 7.408-4.248 8.492-7.219 1.272-3.485-2.644 1.367-2.95 1.367-2.95 0 0-1.655-1.547-2.067-2.426-.646-.791 1.279-9.233 3.817-15.397 4.628-7.053.927-5.721-1.81 2.849-5.857 5.61-2.649 8.974-6.717 8.974-10.852 0-.77.533-1.931 1.183-2.582.651-.651.89-1.477.532-1.836-.883-.883-5.186 2.038-9.409 6.387-2.78 2.862-3.655 3.293-4.375 2.155-.982-1.553-1.352-.324-.99 3.29.112 1.109-1.126 2.255-3.507 3.25-6.009 2.511-6.654 2.187-5.883-2.951 1.267-8.45-4.881-6.262-7.695 2.738-1.449 4.635-4.352 5.284-3.356.75.567-2.583.37-3-1.421-3-1.721 0-2.079-.621-2.079-3.607 0-3.006-.288-3.497-1.726-2.944-1.29.495-1.141.038.59-1.804 2.907-3.095 2.752-7.119-.162-4.205-2.5 2.501-3.209 1.282-1.383-2.378L875.847 0h-4.34c-2.561 0-4.528.512-4.799 1.25-.366 1-.723 1-1.783 0C863.133-.441 860-.335 860 1.417c0 .779-.454 1.568-1.01 1.753-.555.185-1.206 2.305-1.445 4.71-.267 2.684-1.296 5.291-2.664 6.747-2.029 2.159-2.064 2.373-.394 2.373 2.339 0 8.695-7.051 8.002-8.877-.625-1.643 1.362-4.333 2.624-3.553 1.952 1.206.711 5.208-2.613 8.43-1.925 1.866-3.5 4.186-3.5 5.156 0 2.499-7.728 4.855-9.106 2.776-1.12-1.691-.446-6.12 1.537-10.093C852.744 8.206 852.705 8 850.892 8c-1.075 0-2.214.675-2.53 1.5-.317.825-1.203 1.5-1.969 1.5S845 11.525 845 12.167c0 .641-.289.877-.643.524-.353-.354-.073-1.329.623-2.167.789-.95.865-1.524.201-1.524-.584 0-1.341.45-1.681 1-.784 1.269-4.5 1.316-4.5.057 0-.519 1.35-1.741 3-2.716 3.264-1.928 4.222-4.066 1.066-2.376-2.598 1.39-3.52 1.305-2.344-.215 2.717-3.51 2.319-4.752-1.503-4.691-2.171.035-4.447.799-5.469 1.834M1228 4c0 2.2.45 4 1 4s1-1.8 1-4-.45-4-1-4-1 1.8-1 4M849 2.583c0 .871.534 1.406 1.188 1.188 1.854-.618 2.161-2.771.395-2.771-.871 0-1.583.712-1.583 1.583M789 3c0 .55.45 1 1 1s1-.45 1-1-.45-1-1-1-1 .45-1 1m3.5 0c.34.55.816 1 1.059 1s.441-.45.441-1-.477-1-1.059-1-.781.45-.441 1m3.563 3.75C796.029 7.988 795.55 9 795 9c-.55 0-1 1.485-1 3.3 0 1.815-.54 3.84-1.2 4.5-1.591 1.591.336 1.553 2.525-.05 2.006-1.468 2.923-6.988 1.676-10.082l-.874-2.168-.064 2.25m72.274 6.92c.368.369-.043 1.758-.913 3.087-2.219 3.386-1.095 3.912 1.448.678 2.081-2.644 2.041-4.435-.098-4.435-.609 0-.806.302-.437.67m112.855.897c-2.029 1.033-2.099 1.255-.582 1.837 1.828.701 3.861-.624 3.252-2.121-.199-.49-1.4-.362-2.67.284m-56.163.394c-.809.512-1.136 1.265-.726 1.675.409.41 1.505-.016 2.435-.946 1.807-1.807.726-2.269-1.709-.729M938.5 15c-.34.55-.141 1 .441 1S940 15.55 940 15s-.198-1-.441-1-.719.45-1.059 1m30.755 5.708c-3.435 3.649-6.064 6.816-5.843 7.037.661.661 5.975-2.399 7.63-4.393 1.372-1.653 5.277-9.407 4.692-9.316-.129.02-3.044 3.023-6.479 6.672m-63.814-4.24c-1.067.808-1.465 1.483-.882 1.5.582.018 1.932-.629 3-1.436 1.067-.808 1.465-1.483.882-1.5-.582-.018-1.932.629-3 1.436m96.769 4.04c-3.616 1.571-6.751 4.284-5.915 5.12.53.53 9.344-3.99 11.155-5.72 1.44-1.376-1.456-1.044-5.24.6M991.5 22c-.34.55-.141 1 .441 1S993 22.55 993 22s-.198-1-.441-1-.719.45-1.059 1m-179.874 1.532c-.393 1.024.257 1.853 1.958 2.5 3.498 1.33 5.416 1.212 5.416-.332 0-3.373-6.211-5.199-7.374-2.168m126.246 1.132c-1.244 1.508-1.162 1.552.878.465 2.327-1.24 2.9-2.129 1.372-2.129-.482 0-1.495.749-2.25 1.664M798 25c0 .55.45 1 1 1s1-.45 1-1-.45-1-1-1-1 .45-1 1m204.432 1.075c-1.033 1.142-3.128 2.814-4.655 3.716-3.492 2.062-3.498 2.838-.027 3.504 2.749.527 5.641-.854 4.763-2.275-.256-.414.424-1.558 1.511-2.541 2.003-1.814 2.677-4.479 1.131-4.479-.465 0-1.69.934-2.723 2.075M802 26.441c0 .857.45 1.559 1 1.559s1-.423 1-.941-.45-1.219-1-1.559c-.55-.34-1 .084-1 .941M763 27c0 1.253 1.061 1.253 3 0 1.213-.784 1.069-.972-.75-.985-1.237-.008-2.25.435-2.25.985m29.543 1.931c-.317.512-.118 1.213.441 1.559.559.345 1.016-.074 1.016-.931 0-1.757-.6-2.015-1.457-.628M889 29c-1.282.828-1.246.972.25.985.962.008 1.75-.435 1.75-.985 0-1.22-.113-1.22-2 0m28 3.67c-4.125 2.539-10.65 5.719-14.5 7.065-7.807 2.732-10.789 4.186-8.684 4.235.723.016 2.254-.472 3.401-1.086 1.761-.943 1.99-.865 1.466.5-.772 2.01-.9 2.022 4.081-.384 5.118-2.473 9.721-2.706 8.854-.448-.394 1.027 1.765.264 6.368-2.25 7.768-4.241 7.714-5.893-.066-2.043-2.736 1.354-5.19 2.113-5.453 1.687-.555-.897 4.195-3.985 10.591-6.887 2.443-1.108 3.669-2.025 2.723-2.037-1.112-.014-1.515-.551-1.143-1.522.779-2.028.869-2.066-7.638 3.17M941.5 30c-.34.55-.168 1 .382 1s1.278-.45 1.618-1c.34-.55.168-1-.382-1s-1.278.45-1.618 1m-159 1c-.729 1.18.217 3 1.559 3 .518 0 .941-.9.941-2 0-2.109-1.455-2.691-2.5-1M970 32c0 .55.45 1 1 1s1-.45 1-1-.45-1-1-1-1 .45-1 1m-130.59 2.75c-8.379 4.527-11.978 7.865-4.077 3.782 3.758-1.943 7.416-3.532 8.128-3.532.712 0 1.854-.675 2.539-1.5 2.006-2.417-.78-1.889-6.59 1.25M902 33c-1.293.835-1.266.971.191.985.93.008 1.969-.435 2.309-.985.782-1.266-.542-1.266-2.5 0m116.393.582c.334.87.607 1.825.607 2.122 0 .298.675-.019 1.5-.704 2.114-1.755 1.863-3-.607-3-1.51 0-1.935.448-1.5 1.582m5.607-.523c0 .582.45.781 1 .441s1-.816 1-1.059-.45-.441-1-.441-1 .477-1 1.059m211.031 1.441c0 .55.436 1.675.969 2.5.533.825.969 1.05.969.5s-.436-1.675-.969-2.5c-.533-.825-.969-1.05-.969-.5M873.25 36.989c-1.788 1.09-3.25 2.469-3.25 3.064 0 1.089 5.429-2.32 6.529-4.1.831-1.344.403-1.209-3.279 1.036M740 38c0 .55.45 1 1 1s1-.45 1-1-.45-1-1-1-1 .45-1 1m294.5 0c-.34.55.057 1 .882 1s1.778-.45 2.118-1c.34-.55-.057-1-.882-1s-1.778.45-2.118 1m-284 1.369c-7.374 2.779-6.888 4.142 1.807 5.073 6.165.661 11.693-.57 11.693-2.603 0-1.205-1.406-1.033-2.78.341-1.443 1.443-6.22-.744-6.22-2.849 0-1.521-.372-1.518-4.5.038m277 .631c-.731 1.183.248 1.183 3 0 1.928-.829 1.921-.862-.191-.93-1.205-.038-2.469.38-2.809.93m-167.059 1.468c-1.067.808-1.491 1.468-.941 1.468.55 0 1.874-.66 2.941-1.468 1.068-.807 1.491-1.468.941-1.468-.55 0-1.873.661-2.941 1.468m186.62 1.933c-1.156 1.87-2.832 3.681-3.724 4.023-.893.343-1.407.839-1.142 1.104.805.805 6.865-2.622 6.288-3.556-.297-.48.374-1.36 1.489-1.957 2.337-1.251 2.693-3.015.61-3.015-.781 0-2.365 1.53-3.521 3.401m189.191.099c.011 2.2.216 2.982.455 1.738.239-1.244.23-3.044-.02-4s-.446.062-.435 2.262M866.5 42c-.34.55-.141 1 .441 1S868 42.55 868 42s-.198-1-.441-1-.719.45-1.059 1M708 43c0 .55.45 1 1 1s1-.45 1-1-.45-1-1-1-1 .45-1 1m247.441 3.45c-1.875 1.401-1.864 1.431.309.884 1.237-.312 2.25-.965 2.25-1.451 0-1.19-.295-1.124-2.559.567m-39.691.239c-.962.252-1.75.875-1.75 1.384 0 1.265 1.047 1.115 4-.573 2.414-1.38 1.369-1.756-2.25-.811m-200.207 2.242c-.683 1.105.894 2.299 1.818 1.375.95-.951.773-2.306-.302-2.306-.518 0-1.2.419-1.516.931m69.485.009c-1.27.822-1.243 1.04.192 1.591 2.121.814 4.827.265 5.083-1.031.266-1.351-3.443-1.744-5.275-.56m271.927 1.414c.471.471 1.661.401 2.659-.158 1.553-.869 1.434-.989-.853-.853-1.468.087-2.277.539-1.806 1.011m-262.798 3.641c-3.152.745-6.661 3.022-4.607 2.99 1.436-.023 8.317-2.518 9.098-3.3.809-.808.006-.753-4.491.31M870.5 54c-.34.55-.168 1 .382 1s1.278-.45 1.618-1c.34-.55.168-1-.382-1s-1.278.45-1.618 1m184.75-.28c-1.44.514-1.719 4.28-.317 4.28.914 0 2.579-3.873 1.908-4.438-.187-.159-.903-.087-1.591.158m4 4.53c.63 1.892 3.75 2.161 3.75.323 0-.927-.855-1.573-2.083-1.573-1.222 0-1.912.517-1.667 1.25M691 60c0 .55.45 1 1 1s1-.45 1-1-.45-1-1-1-1 .45-1 1m24.639 2.694c-1.126 1.126-.685 2.306.861 2.306.825 0 1.5-.423 1.5-.941 0-1.261-1.562-2.164-2.361-1.365M778.5 67c-.34.55.057 1 .882 1s1.778-.45 2.118-1c.34-.55-.057-1-.882-1s-1.778.45-2.118 1m317.942.094c-.308.498.592.906 1.999.906 3.064 0 3.312-.57.56-1.289-1.099-.288-2.251-.115-2.559.383m-311.001 7.374c-2.539 1.921-.463 1.946 3.195.038 2.396-1.249 2.527-1.495.805-1.5-1.132-.003-2.932.655-4 1.462m40.309.221c-.962.252-1.75.824-1.75 1.271 0 .968 8.928 2.445 9.758 1.615.317-.316-.127-.575-.984-.575-.858 0-1.819-.675-2.136-1.5-.575-1.5-1.6-1.67-4.888-.811M717 76.5l-2.5 1.429 2.75.036c1.794.023 2.75-.487 2.75-1.465 0-1.789.129-1.789-3 0m-51.224 1.676c1.301 1.301-.094 3.802-2.148 3.851-1.538.037-8.933 7.001-8.206 7.728.856.856 5.19-1.692 8.333-4.899 1.51-1.541 4.207-3.089 5.995-3.44 1.788-.351 3.25-.846 3.25-1.099 0-1.411-3.234-3.317-5.629-3.317-2.124 0-2.496.275-1.595 1.176m23.795 2.395c-1.059.775-1.732 1.601-1.496 1.837.235.236 1.295-.205 2.354-.979 1.059-.775 1.732-1.601 1.496-1.837-.235-.236-1.295.205-2.354.979m121.647-.417c.519 1.558 2.756 1.83 2.835.346.029-.55-.698-1.155-1.615-1.346-1.043-.215-1.5.159-1.22 1m269.782.239c0 .949 2.993 1.427 3.527.563.325-.526-.336-.956-1.468-.956s-2.059.177-2.059.393m-237.25 5.269c.688.278 1.813.278 2.5 0 .688-.277.125-.504-1.25-.504s-1.937.227-1.25.504m-192.017 1.462c.679.684 1.486.991 1.793.683.308-.308-.247-.867-1.233-1.243-1.425-.542-1.54-.428-.56.56M798 87.583c0 1.766 2.153 1.459 2.771-.395.218-.654-.317-1.188-1.188-1.188S798 86.713 798 87.583m291.291.592-3.791 1.677 6-.014c6.473-.014 17.867-1.48 13.25-1.704-1.513-.074-2.75-.55-2.75-1.058 0-1.475-8.562-.735-12.709 1.099M648.5 90c.34.55 1.465 1 2.5 1s2.16-.45 2.5-1c.362-.585-.676-1-2.5-1-1.824 0-2.862.415-2.5 1m-11.265 3.497c-1.796.781-3.532 2.113-3.857 2.961-.326.848-1.219 1.542-1.985 1.542-1.455 0-1.851 1.209-.755 2.305.352.351 1.589-.222 2.75-1.274a234.783 234.783 0 0 1 5.112-4.44c3.445-2.903 3.262-3.061-1.265-1.094M1098 94c0 .55.477 1 1.059 1s.781-.45.441-1-.816-1-1.059-1-.441.45-.441 1m-6 1c0 .55.423 1 .941 1s1.219-.45 1.559-1c.34-.55-.084-1-.941-1s-1.559.45-1.559 1m-429.5 3c-.34.55-.168 1 .382 1s1.278-.45 1.618-1c.34-.55.168-1-.382-1s-1.278.45-1.618 1m-39 4.209c-1.1.632-3.8 2.928-6 5.103-2.999 2.965-3.249 3.411-1 1.784a232.73 232.73 0 0 1 6.75-4.646c4.862-3.209 5.062-5.003.25-2.241m509.5 3.76c0 .532.675.709 1.5.393.825-.317 1.5-.753 1.5-.969 0-.216-.675-.393-1.5-.393s-1.5.436-1.5.969m-5.5 3.031c-.34.55-.168 1 .382 1s1.278-.45 1.618-1c.34-.55.168-1-.382-1s-1.278.45-1.618 1m16.5 4.5c0 .825.395 1.5.878 1.5.482 0 1.437-.675 2.122-1.5 1.04-1.253.896-1.5-.878-1.5-1.22 0-2.122.638-2.122 1.5m33.636 49.25c.111 1.512.238 2.858.283 2.99.044.132.965-.516 2.045-1.441 1.466-1.256 1.689-2.013.877-2.99-1.821-2.195-3.419-1.476-3.205 1.441M1208.71 229c.607 2.32 2.543 2.605 4.193.617.889-1.071.785-1.523-.459-2-3.018-1.158-4.276-.692-3.734 1.383m.29 9c0 1.253 1.061 1.253 3 0 1.213-.784 1.069-.972-.75-.985-1.237-.008-2.25.435-2.25.985m8.441 16.43c-1.909 1.406-1.904 1.464.267 3.5 2.837 2.66 4.15 2.614 5.209-.18 1.539-4.062-1.757-6.06-5.476-3.32m9.032-.386c-.355.574-.217 1.586.307 2.25 2.335 2.958 2.023 8.109-.347 5.739-1.055-1.055-5.433-.274-5.433.969 0 .422 1.134 1.511 2.52 2.419 2.413 1.581 2.666 1.539 6-1.004 4.07-3.104 4.154-3.59 1.398-8.049-2.158-3.492-3.341-4.111-4.445-2.324m12.235 7.581c-.78.78.295 3.375 1.399 3.375 1.143 0 1.168-2.712.032-3.414-.473-.292-1.117-.275-1.431.039m-16.986 9.421c.545 2.084 2.838 2.518 5.249.993 1.837-1.162 1.355-1.595-2.615-2.349-2.76-.525-3.082-.359-2.634 1.356M1229 274c0 .55.45 1 1 1s1-.45 1-1-.45-1-1-1-1 .45-1 1m6.5 39c-.34.55-.141 1 .441 1s1.059-.45 1.059-1-.198-1-.441-1-.719.45-1.059 1m-5.5 4.941c0 .518.45 1.219 1 1.559.55.34 1-.084 1-.941s-.45-1.559-1-1.559-1 .423-1 .941m-185.481 32.875c-.406.404-10.047 1.19-14.194 1.157-1.746-.014-3.448.417-3.782.957-.334.54-1.273.727-2.088.414-.814-.312-2.037-.129-2.718.407-.68.536-3.678 1.249-6.66 1.585-2.983.336-5.886 1.073-6.45 1.637-.565.565-2.689 1.027-4.72 1.027-2.286 0-3.903.547-4.244 1.435-.525 1.368 9.131 1.428 11.327.071.393-.243 1.569.197 2.613.978 1.831 1.369 1.799 1.512-.909 4.06-4.396 4.137-3.288 5.94 3.713 6.039 3.998.057 6.23.564 6.984 1.589 1.166 1.582 7.047 2.851 14.609 3.15 4.291.17 4.503.319 4.557 3.21.08 4.294 1.142 5.582 4.012 4.861 1.512-.379 3.414.021 4.984 1.05 1.649 1.08 3.311 1.406 4.743.929 3.462-1.154 6.01-1.019 8.557.451 1.567.905 3.966 1.162 7.181.77 5.03-.612 7.966.854 7.966 3.978 0 .786.638 1.429 1.417 1.429s1.566.441 1.75.98c.493 1.451 9.692 2.92 14.614 2.335 4.185-.497 7.781.967 6.693 2.726-.759 1.229 2.556 2.14 12.526 3.445 3.162.414 7.786 2.013 10.877 3.763l5.378 3.044 6.446-2.213 6.447-2.212 2.176 2.354c2.652 2.868 4.652 7.114 4.746 10.075.066 2.044.125 2.064.828.269.52-1.329.986-1.563 1.489-.75.402.651 1.181 1.184 1.731 1.184s.679-.52.287-1.155c-.443-.715-.275-.883.44-.44.635.392 1.155 1.217 1.155 1.833 0 1.687 6.982 7.74 9.126 7.912l3.124.25c1.393.111 1.359-5.697-.036-6.162-1.514-.505-9.665-8.667-13.718-13.738-2.198-2.75-4.821-5.615-5.83-6.366-1.181-.879-1.49-1.71-.868-2.332 1.181-1.181 5.202 1.09 5.202 2.939 0 .692.642 1.259 1.427 1.259 2.332 0 7.403 6.879 6.882 9.337-.425 2.011-.357 2.04.974.416 1.348-1.643 1.592-1.598 4.126.75 1.482 1.374 3.481 2.497 4.443 2.497.961 0 2.288.54 2.948 1.2.933.933 1.467.933 2.4 0 .933-.933.933-1.2 0-1.2-.66 0-1.2-1.163-1.2-2.584 0-4.12-13.369-20.465-18.26-22.325-1.507-.573-2.777-1.615-2.823-2.316-.373-5.707-.214-5.427-7.69-13.542-3.671-3.985-4.761-4.606-7.738-4.405-3.179.214-8.005-1.889-9.638-4.201-.357-.505-1.37-.642-2.25-.304-1.734.665-2.232-.815-.611-1.817 2.65-1.638-2.899-4.87-6.476-3.772-1.934.594-3.265.672-2.956.173.308-.499-.142-.907-.999-.907s-1.447.54-1.309 1.201c.28 1.345-5.284 1.223-10.34-.227-1.662-.476-5.134-.618-7.716-.315-4.062.477-5.061.21-7.417-1.981-2.409-2.24-3.13-2.419-6.26-1.555-2.765.763-4.02.638-5.749-.573-1.217-.853-3.201-1.55-4.409-1.55-3.082 0-5.45-1.043-4.791-2.111.498-.805-25.241-.878-26.049-.073m-378.008 3.016c-.281.732-.519 2.082-.528 3-.024 2.315-4.669 6.503-6.452 5.818-.807-.309-1.687-.207-1.955.227s-1.831.592-3.473.351c-3.196-.469-8.103 3.242-8.103 6.128 0 2.904 6.214 5.402 12.325 4.953 3.572-.262 5.675-.026 5.675.638 0 .598 2.174 1.053 5.031 1.053 3.55 0 5.201.442 5.607 1.5.317.825 1.148 1.5 1.847 1.5.698 0 1.83-.675 2.515-1.5.728-.878 2.957-1.513 5.372-1.532 2.271-.017 4.954-.658 5.964-1.423 1.127-.854 3.101-1.186 5.113-.86 1.802.293 4.329-.031 5.616-.72 1.719-.92 2.44-.949 2.721-.108.209.628.778 1.143 1.263 1.143 1.266 0 6.92-5.697 6.285-6.333-.293-.292.418-.283 1.58.021 1.939.507 2.097.177 1.937-4.051-.161-4.264-.46-4.752-4.043-6.62-4.216-2.198-6.808-2.585-6.808-1.017 0 1.431-1.693 1.239-5.653-.64-2.711-1.286-3.929-1.397-5.652-.515-1.207.619-3.77 1.084-5.695 1.034-1.925-.05-4.666.22-6.092.601-1.774.474-3.093.192-4.179-.894-.872-.872-2.293-1.586-3.158-1.586-.864 0-1.571-.337-1.571-.75 0-1.325-4.959-.799-5.489.582m456.891 9.327c-.281.454-.05 1.616.513 2.583.629 1.08 1.036 1.253 1.055.449.016-.72.48-1.031 1.03-.691.55.34 1-.234 1-1.274 0-1.877-2.618-2.653-3.598-1.067m-443.652.503c.688.278 1.813.278 2.5 0 .688-.277.125-.504-1.25-.504s-1.937.227-1.25.504m350.063 8.021c.721.289 1.584.253 1.916-.079.332-.332-.258-.568-1.312-.525-1.165.048-1.402.285-.604.604m100.266.9c.048 1.165.285 1.402.604.605.289-.722.253-1.585-.079-1.917-.332-.332-.568.258-.525 1.312m-490.412.084c-.367.366-.667 1.131-.667 1.7 0 .626.466.567 1.183-.15.651-.651.951-1.416.667-1.7-.284-.284-.817-.217-1.183.15M635 374.393c0 .216.675.652 1.5.969.825.316 1.5.139 1.5-.393 0-.533-.675-.969-1.5-.969s-1.5.177-1.5.393m62.75 1.313c1.237.238 3.263.238 4.5 0 1.237-.239.225-.434-2.25-.434s-3.487.195-2.25.434m348.917 2.961c-1.262 1.261-.663 2.333 1.302 2.333 1.339 0 1.784-.48 1.393-1.5-.616-1.604-1.615-1.913-2.695-.833M1146 392.893c0 .491.652 1.143 1.449 1.449.969.372 1.265.076.893-.893-.607-1.582-2.342-1.994-2.342-.556M1131.5 399c.34.55 1.491 1 2.559 1s1.941-.45 1.941-1-1.152-1-2.559-1c-1.451 0-2.292.433-1.941 1m53.062 20.194c.383 1.207 1.65 2.974 2.817 3.927 3.105 2.536 3.545-.508.537-3.71-2.822-3.004-4.269-3.098-3.354-.217m-29.562-.213c0 .443.712 1.078 1.582 1.412 2.247.862 2.637.764 2.197-.556-.442-1.325-3.779-2.081-3.779-.856m-669.921 1.602c.048 1.165.285 1.402.604.605.289-.722.253-1.585-.079-1.917-.332-.332-.568.258-.525 1.312m760.111 7.278c-.987.626-.679 1.244 1.25 2.508 1.408.922 2.56 2.567 2.56 3.654 0 1.326.675 1.977 2.048 1.977 1.35 0 2.499 1.072 3.37 3.142.868 2.065 1.51 2.665 1.872 1.75.381-.959.577-1.003.631-.142.117 1.847 2.079 1.521 2.079-.344 0-1.481-10.635-13.425-11.922-13.391-.318.009-1.167.389-1.888.846m-762.304 8.389c-.496 5.433-.943 7.269-1.844 7.569-1.171.391-1.287 6.701-.175 9.526.642 1.632.872 1.523 1.996-.943 1.708-3.75 2.667-17.402 1.221-17.402-.596 0-1.135.563-1.198 1.25m775.146 15.309c.017.517.692 1.815 1.5 2.882.807 1.068 1.454 1.518 1.436 1-.017-.517-.692-1.815-1.5-2.882-.807-1.068-1.454-1.518-1.436-1M478.916 457c-.102 1.722-.29 1.956-.605.75-.252-.962-.875-1.75-1.384-1.75-.51 0-.934.788-.942 1.75-.012 1.341-.213 1.438-.862.415-1.004-1.584-2.071 1.574-2.138 6.335-.038 2.653-2.444 12.419-4.435 18-.666 1.869-.619 1.885.729.25.793-.962 1.946-1.75 2.562-1.75.617 0 1.395-1.238 1.73-2.75 1.254-5.665 2.613-9.25 3.507-9.25 1.557 0 1.048 2.535-2.078 10.341-1.65 4.121-3 8.205-3 9.076 0 .87-.666 1.583-1.481 1.583-2.577 0-4.054 13.522-2.239 20.5.537 2.064.476 2.541-.196 1.528-1.272-1.918-1.502-1.139-2.964 10.024-1.414 10.798-1.424 26.28-.014 20.948.51-1.925 1.3-4.175 1.756-5 1.754-3.173 3.32-12.127 2.583-14.768-.912-3.267-.72-5.783.724-9.483.679-1.738.728-3.211.134-4-1.291-1.715-1.489-6.516-.299-7.251.57-.353.7.11.315 1.114-.481 1.251-.303 1.496.656.903 1.01-.624 1.187-.144.765 2.067-.509 2.661-.445 2.735.84.977.766-1.046 1.328-3.288 1.251-4.981-.155-3.384 3.583-19.615 5.224-22.68.567-1.061 1.18-3.384 1.361-5.163.18-1.779.649-6.16 1.041-9.735.565-5.153.391-6.914-.84-8.5-1.526-1.964-1.556-1.955-1.701.5m782.099 1.25c.031 2.517 1.65 4.064 2.349 2.244.353-.921.389-2.084.08-2.584-.825-1.336-2.446-1.109-2.429.34m9.485-.25c-.34.55.11 1 1 1s1.34-.45 1-1c-.34-.55-.79-1-1-1-.21 0-.66.45-1 1m2.21 5c-.287 1.1-.115 2 .384 2 .498 0 .906-.9.906-2s-.173-2-.383-2c-.211 0-.619.9-.907 2m-9.21 0c-.729 1.18.217 3 1.559 3 .518 0 .941-.9.941-2 0-2.109-1.455-2.691-2.5-1m4.142 5.666c.34 4.902.863 6.122 3.876 9.048 1.915 1.86 3.482 4.036 3.482 4.834 0 .799.498 1.452 1.107 1.452.68 0 .811-.675.34-1.75-.421-.962-1.218-5.012-1.77-9-.552-3.988-1.38-7.25-1.84-7.25-.46 0-.837.45-.837 1 0 2.056-1.986.905-2.589-1.5-1.128-4.494-2.172-2.626-1.769 3.166m-2.223 11.834c.301 2.2.972 7.15 1.491 11 .518 3.85 1.476 8.35 2.128 10 1.057 2.675 1.382 4.112 1.834 8.133.176 1.558 3.909 2.416 4.378 1.006.208-.626.332-4.177.276-7.889-.057-3.712.282-6.75.753-6.75.471 0 .525-1.012.121-2.25-.661-2.028-1.08-4.345-1.317-7.287-.046-.571-1.495-1.145-3.221-1.277-4.099-.312-4.859-.856-4.877-3.495-.009-1.205-.488-2.866-1.065-3.691-.777-1.111-.907-.462-.501 2.5m-585.189 1.629c-14.524.967-41.018 5.207-44.954 7.194-1.527.771-5.889 2.394-9.694 3.607-3.804 1.212-9.879 3.813-13.5 5.778-3.62 1.966-10.11 4.817-14.421 6.335-5.558 1.957-8.763 3.77-11.015 6.228-1.746 1.907-4.631 3.787-6.411 4.177-1.779.391-3.235 1.081-3.235 1.533 0 .452-1.575 1.751-3.5 2.886-1.925 1.136-3.5 2.704-3.5 3.484 0 .781-1.07 2.12-2.377 2.977-2.546 1.668-4.289 6.406-2.876 7.819 1.126 1.126 21.791 5.747 30.891 6.907 3.925.5 8.303 1.353 9.729 1.895 14.22 5.407 70.945 4.59 100.49-1.446 4.046-.827 9.566-1.503 12.265-1.503C730.84 540 749 522.944 749 510.999c0-8.873-10.685-21.999-17.908-21.999-1.088 0-3.621-.97-5.63-2.155-2.767-1.633-6.773-2.462-16.535-3.425-7.086-.699-13.68-1.459-14.655-1.689-.975-.23-7.293-.051-14.042.398m328.01 4.031c-.529.529-3.612 1.167-6.851 1.417s-7.914 1.107-10.389 1.903c-2.475.796-5.651 1.676-7.058 1.955-3.991.791-13.575 10.371-15.905 15.898-3.84 9.11-2.758 15.809 4.39 27.167 2.435 3.87 11.99 10.112 18.212 11.898 28.864 8.283 59.455 12.102 89.861 11.216 23.27-.678 45.881-2.985 48.983-4.998 1.109-.72 4.492-2.122 7.517-3.116 7.223-2.373 9.117-3.693 11.407-7.953 1.744-3.243 2.741-3.997 4.843-3.665.412.065.75-.384.75-.999 0-.624-.882-.886-2-.593-1.233.322-2 .03-2-.761 0-.706-.675-1.844-1.5-2.529-.825-.685-1.5-2.035-1.5-3.001 0-1.004-1.27-2.283-2.967-2.985-1.631-.676-3.205-1.982-3.497-2.901-.292-.92-1.77-2.218-3.284-2.884-3.437-1.512-8.703-5.399-9.117-6.729-.172-.55-2.078-1.9-4.237-3-18.601-9.478-26.874-13.376-29.637-13.964-1.781-.38-3.495-1.105-3.809-1.613-.313-.508-1.677-.923-3.03-.923-1.353 0-5.714-1.143-9.691-2.54-14.643-5.145-65.991-9.8-69.491-6.3m-367.358 19.621a5.489 5.489 0 0 0-.009 1.443c.06.398-1.349 1.101-3.132 1.564-3.083.799-3.241 1.072-3.241 5.595 0 3.489-.466 5.016-1.75 5.736-2.277 1.276-2.21 2.506.25 4.613 1.1.942 2 2.279 2 2.971 0 .692 1.237 1.555 2.75 1.916s3.313 1.1 4 1.641c.688.542 1.25.626 1.25.188s1.102.239 2.449 1.504c1.385 1.301 3.112 2.047 3.974 1.716.87-.334 1.951.148 2.52 1.124 1.847 3.168 1.225-2.328-.895-7.907-1.073-2.826-2.255-8.212-2.625-11.969-.672-6.817-1.805-8.861-5.673-10.233-.962-.341-1.803-.297-1.868.098m422.132 8.185c-.683 1.649-.991 3.652-.684 4.451.76 1.98-1.115 14.216-2.888 18.853-2.523 6.598-2.08 7.73 3.023 7.73 3.298 0 4.72-.477 5.441-1.824.537-1.003 2.729-2.349 4.872-2.991 5.624-1.685 10.147-7.996 10.207-14.242.018-1.893-15.94-14.056-16.017-12.208-.017.421-.635-.03-1.372-1.001-1.238-1.632-1.434-1.538-2.582 1.232M1012 518.059c0 .582.45.781 1 .441s1-.816 1-1.059-.45-.441-1-.441-1 .477-1 1.059m56.638 4.441c.317.825.753 1.5.969 1.5.216 0 .393-.675.393-1.5s-.436-1.5-.969-1.5c-.532 0-.709.675-.393 1.5m320.862 2.182c-8.426 1.121-12.305 6.461-11.003 15.149.914 6.091 11.415 15.406 21.503 19.074 1.925.7 4.645 1.878 6.044 2.619 2.471 1.307 13.929 2.196 16.956 1.315 2.726-.793 6-3.299 6-4.593 0-1.289-.329-2.087-3.331-8.077-.918-1.832-1.669-3.76-1.669-4.284s-1.237-2.247-2.75-3.83c-1.513-1.583-3.245-3.48-3.85-4.217-6.659-8.102-19.692-14.248-27.9-13.156m-129.174 18.942c.599 3.691 1.302 5.081 2.143 4.24.842-.842-.703-7.864-1.731-7.864-.591 0-.759 1.483-.412 3.624m-8.326-1.683c0 .518.45 1.219 1 1.559.55.34 1-.084 1-.941s-.45-1.559-1-1.559-1 .423-1 .941m1.383 6.503c-.331.864-.308 3.143.052 5.064.672 3.58-.822 5.004-1.828 1.742-.297-.962-.373.163-.168 2.5.348 3.987-.695 5.782-1.743 3-.259-.687-.365.37-.235 2.351.336 5.104 1.058 5.897 4.477 4.917 1.601-.459 3.204-.543 3.562-.185.357.358 1.089-.133 1.625-1.091 1.379-2.464 4.505-2.168 5.364.508.659 2.05.767 2.082 1.218.355.398-1.523.669-1.622 1.379-.5 1.475 2.329 1.071-6.643-.488-10.835-.771-2.073-1.696-4.657-2.054-5.742-.525-1.588-.821-1.698-1.522-.564-.746 1.207-1.117 1.203-2.608-.028-1.856-1.534-1.826.461.152 10.064.397 1.925.365 3.171-.069 2.77-1.037-.958-4.422-10.788-4.464-12.961-.045-2.326-1.912-3.288-2.65-1.365m11.696 24.139c.048 1.165.285 1.402.604.605.289-.722.253-1.585-.079-1.917-.332-.332-.568.258-.525 1.312m2.977 17.769c-.723 1.902-1.578 2.662-2.57 2.281-.908-.348-1.486.014-1.486.93 0 .825.675 1.759 1.5 2.075 2.366.908 1.75 2.362-1 2.362-2.963 0-3.179 1.075-.671 3.345 2.499 2.262 3.367 2.104 6.523-1.19 2.314-2.416 2.509-3.025 1.29-4.037-.789-.655-1.214-2.038-.943-3.073.27-1.035.03-2.706-.533-3.713-.931-1.664-1.125-1.571-2.11 1.02M447 592.441c0 .857.45 1.559 1 1.559s1-.423 1-.941-.45-1.219-1-1.559c-.55-.34-1 .084-1 .941m-.032 7.809c-.017 2.337-.692 5.124-1.5 6.191-1.689 2.234-1.962 8.665-.433 10.194.57.57 1.132 3.132 1.25 5.693.118 2.562.552 4.661.965 4.665.413.004.75 1.042.75 2.307s.406 2.727.903 3.25c.497.522 1.061 1.827 1.254 2.899.238 1.326 1.229 1.996 3.097 2.095 2.631.141 2.746-.053 2.746-4.616 0-2.619-.928-6.926-2.061-9.571-2.554-5.957-4.939-17.028-4.939-22.922 0-2.439-.45-4.435-1-4.435s-1.014 1.913-1.032 4.25m342.248 66.46C782.712 667.957 776 679.707 776 689.845c0 5.419.082 5.57 6.469 11.958 7.076 7.076 8.696 7.45 16.73 3.867 1.816-.81 4.7-1.921 6.41-2.47 1.709-.549 5.231-2.618 7.826-4.599 2.595-1.98 5.533-3.601 6.528-3.601 2.239 0 3.169-4.937 1.839-9.754-1.241-4.497-10.09-13.236-16.748-16.542-5.213-2.588-9.756-3.16-15.838-1.994m104.284 7.129c-14.411 4.921-25.319 15.178-25.67 24.138-.193 4.919.315 5.489 4.63 5.199 2.282-.154 3.823.352 4.715 1.548 2.135 2.862 4.536 4.413 7.527 4.862 1.539.23 3.923.698 5.298 1.039 9.727 2.412 17.064-1.049 24.5-11.557 3.866-5.464 4.425-17.25 1-21.101-4.962-5.581-13.211-7.128-22-4.128m480.5 31.72c-2.475.811-6.975 1.96-10 2.551-5.173 1.012-7.723 1.337-17.5 2.232-2.2.201-5.35.926-7 1.611-1.65.685-4.071 1.257-5.379 1.271-5.281.057-10.63 7.606-13.075 18.453-1.218 5.403-2.411 10.447-2.651 11.209-.813 2.579-3.25 21.578-3.503 27.311-.528 11.952 6.937 13.798 25.608 6.333 8.773-3.507 16.928-5.955 23-6.902 11.222-1.751 12.203-1.965 15.815-3.462 1.548-.641 3.073-1.166 3.389-1.166 1.594 0 19.578-9.572 19.988-10.639.261-.681 1.9-1.55 3.642-1.931 1.741-.38 4.081-1.676 5.199-2.878 4.409-4.742 21.12-5.504 22.833-1.041.314.819 1.424 1.489 2.467 1.489 1.043 0 3.419 1.332 5.281 2.961 13.175 11.522 23.899 13.873 39.333 8.622 14.863-5.057 22.517-7.3 27.553-8.077 5.196-.801 22.085-7.721 26.5-10.859 8.039-5.712 10.823-9.267 10.212-13.036-.319-1.966-.199-3.81.266-4.097 1.371-.848-.415-5.769-2.518-6.937-1.065-.593-3.008-1.858-4.316-2.813-1.309-.955-2.787-1.484-3.286-1.176-.499.308-.784-.035-.633-.764.152-.732-.502-1.263-1.464-1.187-.957.075-1.515-.225-1.242-.669.274-.443-.968-1.119-2.76-1.502-1.793-.383-3.709-1.042-4.259-1.464-2.466-1.893-15.856-4.024-21.798-3.469-11.537 1.078-50.701 1.066-50.717-.015-.01-.674-.264-.68-.75-.018-.971 1.321-3.235 1.742-3.235.602 0-.978-4.172-.743-13.5.762-9.402 1.516-30.093 1.328-38-.345-10.96-2.32-18.426-2.625-23.5-.96m-510.66 3.338c-1.12 1.044-2.892 2.117-3.938 2.386-1.046.268-.089.469 2.126.447 3.027-.03 4.468-.623 5.797-2.385 2.328-3.087-.777-3.436-3.985-.448m-625.589 40.271c-.138.368-5.426.883-11.751 1.146-6.325.262-12.739.964-14.254 1.559-1.515.594-4.215 1.261-6 1.481-6.58.813-12.934 2.974-14.064 4.784-.64 1.024-1.73 1.862-2.423 1.862-1.722 0-1.663 8.454.072 10.188.733.733 1.641 2.565 2.019 4.072.397 1.578 1.376 2.74 2.311 2.74.892 0 2.913 1.35 4.489 3 1.577 1.65 3.313 3 3.859 3 .545 0 .991.42.991.933 0 .513.787 1.183 1.75 1.489.963.306 3.032 1.745 4.598 3.198 1.566 1.453 4.941 3.738 7.5 5.078 2.559 1.34 5.146 3.073 5.751 3.853.604.78 1.307 1.209 1.562.955.255-.255 2.46 1.94 4.901 4.878 3.964 4.771 13.019 11.782 19.936 15.435 3.803 2.009 6.002 4.301 6.002 6.257 0 1.148 1.048 1.995 3 2.424 2.101.461 3 1.252 3 2.638 0 1.089.45 1.702 1 1.362.55-.34 1 .007 1 .772 0 1.152 1.896 2.518 6.132 4.417 1.213.544 5.882-3.858 5.223-4.924-.377-.609-.198-.786.413-.409.631.391 2.169-1.509 3.718-4.595 3.721-7.409 5.199-9.939 6.222-10.646.488-.338 1.959-2.19 3.268-4.115 1.308-1.925 3.087-4.22 3.952-5.101 3.705-3.772 7.072-7.946 7.072-8.768 0-.487.68-1.45 1.51-2.139 1.934-1.606 4.862-11.581 3.87-13.187-.415-.671-.866-2.265-1.002-3.542-.326-3.059-5.112-9.475-9.913-13.291-5.47-4.347-21.833-13.972-23.753-13.972-.888 0-4.224-.726-7.413-1.613-5.741-1.597-24.065-2.507-24.548-1.219m583.442 37.633c-1.819.184-3.569 1.017-3.89 1.85-.451 1.177-.757 1.232-1.366.247-.632-1.023-1.089-1.017-2.35.03-.861.714-1.364 1.625-1.117 2.023.246.398-1.447.798-3.761.889-2.315.091-4.359.614-4.542 1.162-.184.549-.863.998-1.51.998-1.534 0-3.897 3.803-3.132 5.041.326.527.116.959-.466.959-.582 0-1.059.675-1.059 1.5s-.868 1.5-1.929 1.5c-2.276 0-5.336 2.762-4.521 4.081.312.505-.134.919-.991.919-1.563 0-1.942.996-1.613 4.242.109 1.076-.33 1.548-1.147 1.234-2.035-.781-8.597 6.22-11.417 12.182-1.39 2.938-2.848 5.342-3.239 5.342s-1.549 1.462-2.572 3.25c-5.068 8.853-17.122 23.146-18.698 22.172-.48-.297-.873-.149-.873.329s-2.954 2.825-6.563 5.215C731.424 870.584 725 877.822 725 883.867c0 1.631-.494 3.131-1.097 3.332-1.787.596.923 9.001 3.681 11.417 1.329 1.164 2.416 2.627 2.416 3.25 0 1.036 1.344 1.553 3.25 1.252.413-.065.75.282.75.772 0 1.07 8.403 5.134 11.943 5.776 2.31.419 8.871 3.898 10.057 5.333.275.333 2.086 1.342 4.025 2.243 1.938.901 4.863 2.789 6.5 4.197 2.289 1.968 4.128 2.578 7.975 2.641 2.75.045 6.135.169 7.523.274 2.29.174 2.487-.109 2.14-3.081-.279-2.391-.884-3.273-2.248-3.273-1.577 0-1.718-.387-.915-2.5.785-2.065.65-2.506-.775-2.532-1.314-.024-1.071-.52 1.025-2.083 1.513-1.129 2.75-2.689 2.75-3.468 0-.853 1.018-1.417 2.559-1.417 1.451 0 2.292.433 1.941 1-.34.55.309 1 1.441 1 1.132 0 2.063.337 2.067.75.009.898 4.852 3.25 6.691 3.25.716 0 1.301.628 1.301 1.396 0 .996 1.146 1.337 4 1.192 2.2-.113 4 .159 4 .604 0 .444.852.808 1.893.808s2.125.605 2.409 1.345c.284.739 2.694 1.898 5.357 2.575 2.663.677 6.399 1.911 8.304 2.741l3.462 1.51-2.281 1.72-2.28 1.721 3.568 1.921c3.538 1.906 4.5 3.773 2.56 4.972-1.763 1.089 1.68 3.495 5.002 3.495 3.84 0 6.256-1.233 9.915-5.062 1.721-1.801 3.83-2.938 5.449-2.938 1.453 0 2.642-.398 2.642-.883 0-1.11 4.601-2.034 7-1.407 4.096 1.071 1.725 10.29-2.645 10.29-.707 0-1.766.9-2.355 2-.812 1.518-.76 2 .215 2 .844 0 1.318 1.561 1.382 4.547.053 2.501.589 5.039 1.191 5.641 1.792 1.792 11.27 2.33 12.303.699.649-1.025.882-1.056.894-.118.017 1.401 4.556.711 6.765-1.029.688-.542 1.257-.592 1.265-.112.009.479.346.366.75-.252s2.76-1.397 5.235-1.731c5.433-.734 10.462-1.99 14.5-3.621 1.65-.667 3.924-1.324 5.053-1.459 1.854-.223 4.39-1.906 7.94-5.267.698-.662 1.547-.924 1.888-.584.34.341.62.207.622-.297.002-.504 1.664-.954 3.694-1 2.031-.046 3.867-.608 4.081-1.25.214-.642.996-1.167 1.738-1.167s1.61-.822 1.929-1.827c.55-1.731 8.777-6.173 11.434-6.173.681 0 .961-.45.621-1-.34-.55-.025-1 .7-1 1.743 0 4.055-3.778 3.179-5.195-.411-.665-.235-.834.437-.419.681.421 1.377-.308 1.763-1.845.351-1.398 1.009-2.541 1.462-2.541.987 0 2.45-3.986 2.111-5.751-.132-.689.874-1.759 2.236-2.38 2.426-1.105 3.869-3.698 5.03-9.04.603-2.775-1.441-7.586-4.668-10.986-.962-1.013-1.75-2.368-1.75-3.01 0-.641-.255-.911-.567-.6-.311.312-2.083-.85-3.938-2.583-1.854-1.732-6.441-5.85-10.194-9.15-6.086-5.352-15.231-16.076-16.143-18.93-.956-2.993-5.584-11.57-6.242-11.57-.416 0-1.049-1.33-1.406-2.955s-1.41-3.196-2.34-3.491c-1.135-.36-1.687-1.607-1.68-3.795.006-2.078-.443-3.168-1.24-3.009-.687.137-1.25-.399-1.25-1.193s-1.013-2.153-2.25-3.02c-1.237-.866-2.101-1.679-1.918-1.806.182-.127.016-1.489-.37-3.028-.386-1.538-.921-2.578-1.187-2.311-.951.951-9.961-11.963-9.497-13.612.111-.396-.644-1.173-1.677-1.726-1.034-.553-3.502-2.581-5.485-4.507-1.982-1.925-5.377-4.405-7.542-5.509-2.166-1.105-4.223-2.47-4.571-3.033-1.376-2.226-19.503.811-19.503 3.267 0 .976-3.172 4.379-3.689 3.958-.183-.149-1.743.459-3.467 1.351-2.418 1.25-2.816 1.823-1.74 2.505.998.631 1.04.888.146.899-.687.008-1.25.69-1.25 1.515s-.466 1.5-1.035 1.5c-2.152 0-5.965-3.308-5.965-5.174 0-1.069-.412-1.69-.915-1.379-.503.311-1.74-1.226-2.75-3.415-1.009-2.189-2.235-3.992-2.725-4.006-.489-.014-1.389-.596-2-1.293-.612-.699-2.593-1.117-4.417-.932m-558.836 81.684c-1.179.601-2.867 1.693-3.75 2.426-1.063.882-1.607.954-1.607.211 0-1.569-2.566-1.398-6.05.404-2.266 1.172-2.957 1.23-2.982.25-.02-.8-.535-.613-1.381.502-1.198 1.579-1.851 1.644-5.842.576-3.768-1.008-5.038-.949-7.869.366-1.857.861-6.751 2.567-10.876 3.791-4.125 1.223-8.4 2.695-9.499 3.27-2.641 1.383-25.724 1.205-28.384-.218-1.136-.608-7.364-1.275-13.841-1.482-6.477-.207-12.226-.455-12.776-.55-2.046-.357-13.168 3.231-18 5.805-5.734 3.055-6.614 3.68-10.305 7.326-4.774 4.714-5.737 6.157-4.403 6.602.664.221 1.208 1.431 1.208 2.689 0 2.24 9.539 7.547 13.566 7.547.789 0 1.434.487 1.434 1.083s.522.91 1.159.697c.638-.212 2.1.45 3.25 1.473 1.15 1.022 5.128 4.337 8.841 7.366 3.713 3.028 6.75 5.955 6.75 6.503 0 .549 2.178 3.333 4.84 6.188 5.119 5.49 6.545 8.714 10.92 24.69 1.431 5.225 2.971 9.65 3.421 9.833.45.184.826 1.759.834 3.5.012 2.344.257 2.785.946 1.696 1.055-1.668 2.507-.687 2.526 1.705.007.877.576 1.783 1.263 2.013.765.257 1.25-.495 1.25-1.941 0-1.299.618-3.249 1.372-4.333.755-1.085 1.682-3.398 2.061-5.139.379-1.742 1.337-3.415 2.128-3.719.791-.304 1.439-1.657 1.439-3.007s1.058-3.727 2.352-5.281c1.293-1.555 3.604-4.852 5.134-7.327 1.531-2.475 3.51-5.213 4.399-6.085.888-.872 3.19-3.553 5.115-5.958 1.925-2.405 6.2-7.13 9.5-10.499 3.3-3.37 9.713-10.036 14.25-14.814 4.538-4.778 9.376-9.2 10.75-9.826 1.578-.719 2.5-1.961 2.5-3.367 0-1.784.748-2.368 3.75-2.929 2.063-.386 4.26-1.122 4.883-1.637.745-.615 1.334-.414 1.719.589.702 1.831 3.619 2.047 3.718.276.039-.687.463-.35.942.75.854 1.959.885 1.956 1.526-.174.418-1.387 1.299-2.05 2.433-1.832 1.739.335 2.428-.613 4.853-6.679 1.732-4.33-1.567-12.815-4.981-12.815-.922 0-1.826-.362-2.01-.804-.183-.442-1.298-.312-2.476.289M464 869.606c-6.452 2.394-15.744 5-21.5 6.029-20.591 3.683-46.13 16.385-52.461 26.091-2.624 4.022-11.65 15.871-13.809 18.128-.713.745-2.171 3.071-3.241 5.168-1.07 2.098-3.353 5.899-5.073 8.447-1.72 2.548-4.512 7.423-6.204 10.832-4.393 8.847-15.763 29.106-16.669 29.699-.42.275-1.459 1.85-2.308 3.5-.85 1.65-2.713 4.091-4.14 5.424-1.427 1.334-2.595 2.964-2.595 3.624 0 1.732-15.694 11.784-17.384 11.135-.781-.3-1.702-.263-2.047.082-2.802 2.801-18.259 1.268-26.569-2.636-6.332-2.975-26.471 1.189-35.588 7.358-6.18 4.182-23.522 21.566-24.703 24.763-.355.963-1.11 1.75-1.678 1.75-.567 0-1.031.675-1.031 1.5s-.45 1.5-1 1.5-1 .45-1 1.001c0 .551-1.687 2.741-3.75 4.868-5.393 5.561-6.43 7.031-5.742 8.144.335.543.133.987-.449.987-.582 0-1.059 1.38-1.059 3.067 0 2.613-.297 2.974-2 2.433-2.451-.778-2.771 1.872-.5 4.143 1.642 1.642 2.026 5.914.61 6.789-.489.302-1.123 2.016-1.41 3.809-1.016 6.356-3.604 12.937-4.797 12.199-.84-.519-1.365 3.78-.955 7.81.108 1.068-.529 1.777-1.635 1.82-1.642.064-1.628.143.143.836 1.861.728 1.868.813.147 1.776-1.948 1.091-1.803 4.987.17 4.58.672-.138.902.42.552 1.334-.491 1.279-.781 1.324-1.558.238-.916-1.279-.533.323.936 3.916.283.693-.205 1.25-1.096 1.25-.884 0-1.607.684-1.607 1.519 0 1.105-.656 1.355-2.407.915-1.324-.332-3.28-.137-4.347.434-1.196.641-2.296.682-2.87.108-.512-.512-3.538-1.827-6.725-2.924-3.27-1.125-7.012-3.298-8.591-4.988-1.538-1.646-3.153-2.672-3.588-2.279-.435.393-.508-.071-.164-1.033.347-.965-.221-3.202-1.269-5-3.075-5.274-1.503-10.712 4.837-16.727 2.818-2.674 5.124-4.612 5.124-4.306 0 .306 1.35-1.143 3-3.219 1.65-2.076 3-4.613 3-5.638 0-1.024.654-1.862 1.453-1.862 2.025 0 1.525-5.058-.703-7.117-.963-.89-1.75-1.991-1.75-2.447 0-1.597-5.285-8.436-6.519-8.436-1.354 0-2.739-5.176-1.605-5.997 1.464-1.062-.206-7.884-2.261-9.238-.813-.535-.807-.739.024-.75.942-.012 2.177-3.709 2.845-8.515.209-1.509-1.59-3.553-2.586-2.937-.481.297-.593-.195-.247-1.095.502-1.309.796-1.369 1.473-.302.671 1.059.849 1.015.861-.216.008-.852-.455-2.02-1.028-2.593-1.005-1.005 1.348-6.97 3.327-8.436.431-.32.509-1.296.174-2.17-.336-.874.109-2.687.989-4.029.879-1.342 1.332-3.134 1.007-3.982-.86-2.239-3.722-1.452-4.117 1.132-.185 1.214-1.317 4.101-2.516 6.417-1.198 2.316-2.253 5.066-2.344 6.11-.091 1.045-.903 2.439-1.805 3.099-.903.66-1.311 1.53-.908 1.933.403.403.027 1.258-.837 1.901-1.278.952-7.172 11.843-7.396 13.668-.034.275-.438 1.094-.898 1.82-.461.725-2.436 4.55-4.39 8.5-11.902 24.056-29.639 38.948-56.743 47.641-7.189 2.306-17.776 7.29-20.579 9.688-.868.743-2.111 1.351-2.762 1.351-3.018 0-9.343 13.136-9.206 19.122.032 1.443-.618 3.185-1.447 3.873-.828.687-1.506 2.088-1.506 3.113 0 3.359-8.674 10.492-18.794 15.455-5.338 2.619-10.283 5.205-10.989 5.749-1.359 1.046-10.442 4.38-21.217 7.786-3.575 1.13-7.4 2.43-8.5 2.888a57.546 57.546 0 0 1-3.75 1.392c-1.618.517-1.75 2.939-1.75 32.059 0 24.768.267 31.406 1.25 31.061 2.766-.974 20.684-3.434 29.25-4.017 2.75-.188 7.7-.856 11-1.485 3.3-.63 7.35-1.325 9-1.544 1.65-.22 3.9-.602 5-.849 1.1-.248 2.337-.484 2.75-.526.413-.043.75-.752.75-1.577 0-.884.923-1.506 2.25-1.515 1.711-.012 1.912-.23.838-.91-3.486-2.206 1.09-3.596 9.912-3.011 4.675.31 7.15.699 5.5.866-1.908.192-2.359.469-1.238.762.969.253 1.505.875 1.191 1.384-.314.508.965.924 2.841.924 1.877 0 6.249.296 9.717.659 3.706.387 6.072.284 5.742-.25-.309-.5 1.533-.93 4.092-.956 8.437-.086 33.551-1.58 34.296-2.04.402-.248 6.233-1.133 12.958-1.965 6.726-.833 16.092-2.593 20.815-3.912 4.722-1.319 11.736-2.919 15.586-3.554 7.895-1.304 22.619-5.939 23.735-7.473.404-.555.741-.695.75-.311.038 1.762 6.015-1.534 6.015-3.317 0-1.139 1.122-2.416 2.75-3.131 1.512-.665 3.099-1.761 3.526-2.437.427-.677 1.44-.975 2.25-.664.811.311 1.474.146 1.474-.367s1.463-.991 3.25-1.062c1.787-.071 6.551-.495 10.585-.941 4.035-.447 7.553-.46 7.819-.029.267.43.929.508 1.472.172 1.253-.774 10.134-.747 15.374.047 2.2.333 14.125.795 26.5 1.027 12.375.231 24.975.868 28 1.416 3.094.559 16.653.836 31 .633 31.312-.444 38.296.299 55.419 5.894 10.314 3.371 13.927 2.032 20.082-7.439 1.252-1.925 4.615-6.08 7.474-9.233 2.86-3.152 8.238-9.817 11.951-14.81 3.714-4.993 18.018-20.639 31.787-34.768 13.769-14.129 27.281-28.389 30.027-31.689 2.745-3.3 11.949-12.975 20.452-21.5 13.317-13.351 24.22-26.282 33.725-40 6.99-10.088 8.143-12.049 8.69-14.784.781-3.908-1.43-7.207-7.971-11.892-2.825-2.023-6.183-4.836-7.464-6.251-7.428-8.212-16.793-17.326-19.351-18.834-1.624-.956-4.737-4.101-6.919-6.989-2.182-2.888-4.36-5.25-4.84-5.25-.481 0-4.404-4.48-8.718-9.956-7.471-9.482-13.317-19.817-21.804-38.544-1.994-4.4-4.281-9.274-5.083-10.831-.801-1.557-1.457-4.057-1.457-5.556 0-1.498-1.125-4.249-2.5-6.113-1.375-1.864-2.5-4.184-2.5-5.157 0-5.174-5.731-15.5-8.184-14.746-.174.053-3.241 1.182-6.816 2.509m735.411 77.892c-.943 3.758.355 6.658 1.816 4.055.804-1.433.787-2.048-.067-2.333-1.91-.637-1.311-2.22.84-2.22 1.1 0 2-.45 2-1 0-2.235-3.978-.937-4.589 1.498M181.5 975c-.34.55.084 1 .941 1s1.559-.45 1.559-1-.423-1-.941-1-1.219.45-1.559 1m995.624 11.25c-.454 1.237-1.605 5.85-2.557 10.25s-2.124 8.75-2.605 9.666c-.481.917-1.379 4.742-1.995 8.5-.617 3.759-1.724 8.859-2.461 11.334-.737 2.475-1.612 6.13-1.944 8.123-.333 1.993-1.719 5.818-3.082 8.5-1.362 2.682-2.984 6.452-3.605 8.377-1.22 3.786-3.594 7-5.17 7-1.434 0-3.636 3.203-3.673 5.342-.018 1.014-.932 2.987-2.032 4.385-1.1 1.399-2 3.157-2 3.908 0 .751-.45 1.365-1 1.365s-1-.703-1-1.563c0-1.043-.741-1.459-2.225-1.25-3.061.43-3.793-3.108-.805-3.889 1.389-.364 1.941-1.087 1.569-2.056-.315-.823-.186-2.001.289-2.619 2.134-2.782 2.189-4.65.098-3.358-1.1.679-2.266 2.28-2.59 3.558-.689 2.715-2.012 1.759-2.523-1.823-.354-2.481-.366-2.484-1.557-.367-1.185 2.104-2.466 15.179-1.338 13.654.844-1.141 6.082-1.335 6.082-.225 0 .516-.436.938-.969.938-.532 0-.738.6-.457 1.333.291.756-.156 1.334-1.031 1.334-.849 0-1.543-.375-1.543-.834 0-.458-.45-.833-1-.833s-1 1.8-1 4c0 2.889.417 4 1.5 4 .879 0 1.5-.911 1.5-2.2 0-1.714.266-1.934 1.203-.997 2.075 2.075-9.177 22.09-16.097 28.634-1.708 1.615-3.106 3.346-3.106 3.846 0 1.834-4.304 6.882-6.618 7.762-1.409.535-2.382 1.719-2.382 2.897 0 1.726-4.585 7.9-10.81 14.558-1.028 1.1-2.121 2.999-2.428 4.22-.834 3.313 3.28.069 6.694-5.277 1.424-2.231 5.087-6.506 8.138-9.5 7.004-6.871 11.961-13.982 10.413-14.938-1.044-.646 2.826-4.005 4.613-4.005 1.793 0 7.082-5.173 8.83-8.636 1.073-2.125 2.483-4.539 3.132-5.364.65-.825 1.524-2.619 1.942-3.987.419-1.368 1.901-4.209 3.294-6.314 1.393-2.105 3.309-6.161 4.258-9.013 1.398-4.2 2.483-5.616 5.708-7.446 2.282-1.296 4.395-3.431 4.949-5 .532-1.507 1.442-4.09 2.022-5.74.581-1.65 3.123-7.67 5.65-13.378 2.527-5.709 4.595-11.576 4.595-13.039 0-1.463.889-4.404 1.975-6.535 1.087-2.131 1.963-4.813 1.949-5.961-.054-4.093 1.187-12.226 3.246-21.277 2.035-8.952 1.991-12.31-.163-12.31-.581 0-1.428 1.013-1.883 2.25m289.032 17.789c.189 1.326 1.353 2.912 2.587 3.525 4.203 2.087 6.426 4.771 5.962 7.2-.348 1.818.232 2.652 2.676 3.853 1.715.844 5.903 4.528 9.306 8.188 6.732 7.24 8.415 7.761 5.261 1.627-1.112-2.163-1.822-4.72-1.578-5.682.344-1.359-.19-1.75-2.391-1.75-2.893 0-6.268-3.184-7.505-7.082-.335-1.055-1.217-1.918-1.961-1.918-.743 0-3.905-2.334-7.026-5.186-4.989-4.56-5.633-4.895-5.331-2.775m-1286.763 1.543c.334.87.639 2.107.677 2.75.039.642.433.268.875-.832.892-2.216.484-3.5-1.111-3.5-.576 0-.775.712-.441 1.582M1457 1009.893c0 .491.739 1.176 1.641 1.523 1.373.527 1.435.38.378-.893-1.44-1.735-2.019-1.916-2.019-.63m12.625 4.815c-.314.314-.331.958-.039 1.431.702 1.136 3.414 1.111 3.414-.032 0-1.104-2.595-2.179-3.375-1.399m60.375 23.323c0 .533.675.969 1.5.969s1.5-.177 1.5-.393c0-.216-.675-.652-1.5-.969-.825-.316-1.5-.139-1.5.393m4 1.386c0 .87.713 1.583 1.583 1.583 1.766 0 1.459-2.153-.395-2.771-.654-.218-1.188.317-1.188 1.188m-63-.008c0 .19.675.906 1.5 1.591.865.718 1.5.815 1.5.229 0-.558-.675-1.274-1.5-1.591-.825-.316-1.5-.419-1.5-.229m-6.187 3.274c.721.289 1.584.253 1.916-.079.332-.332-.258-.568-1.312-.525-1.165.048-1.402.285-.604.604m13.979 1.459c1.81 1.159 3.54 1.86 3.843 1.556.303-.303-.819-1.259-2.492-2.124-4.374-2.262-5.217-1.908-1.351.568m5.208-1.236c0 .537.474 1.269 1.053 1.627.579.357.872 1.172.651 1.809-.22.637.769 1.943 2.198 2.901 2.077 1.394 2.235 1.745.789 1.75-3.237.012-.843 1.727 3.346 2.397 3.081.493 4.486 1.359 5.736 3.537 1.598 2.785 6.48 5.073 10.825 5.073 1.37 0 .939-.634-1.616-2.383-1.915-1.311-4.474-3.739-5.686-5.397-1.211-1.657-2.786-2.96-3.5-2.896-2.265.205-8.753-3.614-9.354-5.505-.642-2.024-4.442-4.516-4.442-2.913m40.49 3.72c1.292 1.971 1.421 2.811.515 3.371-.663.409-1.204 2.49-1.203 4.624.001 2.133-.243 4.277-.542 4.763-.299.485-.635 2.398-.747 4.25-.268 4.402 2.815 4.732 4.304.46.557-1.598 1.99-3.215 3.183-3.594 1.631-.518 2.032-1.237 1.615-2.897-.426-1.697.133-2.614 2.416-3.962 4.203-2.483 4.033-5.451-.278-4.818-2.868.421-3.094.293-1.935-1.104 1.657-1.996-1.06-3.719-5.867-3.719h-3.181l1.72 2.626m-458.49 1.815c0 .857.45 1.559 1 1.559s1-.423 1-.941-.45-1.219-1-1.559c-.55-.34-1 .084-1 .941m-7.5 1.264c-3.907 2.116-1.586 2.908 2.432.83 1.687-.872 3.068-1.8 3.068-2.061 0-.936-2.555-.364-5.5 1.231M1142 1054c0 .55.477 1 1.059 1s.781-.45.441-1-.816-1-1.059-1-.441.45-.441 1m-111.333 4.667c-1.35 1.349-.602 2.333 1.774 2.333 2.919 0 4.19-1.544 1.971-2.395-2.027-.778-2.92-.764-3.745.062m-7.169 8.346c-.387 2.292-1.441 4.421-2.457 4.965-2.202 1.179-3.407.167-1.925-1.618 1.279-1.541-23.407-.875-26.116.704-1.126.657-.83.883 1.191.906 3.951.044 4.475 1.947.742 2.693-1.917.384-3.393 1.381-3.683 2.489-.37 1.414-1.435 1.848-4.538 1.848-2.23 0-4.789.664-5.686 1.476-.897.812-2.732 1.644-4.078 1.85-1.347.205-2.223.702-1.948 1.105.629.92-3.91 3.486-6.25 3.534-.962.019-1.75.445-1.75.947s-1.913 1.226-4.25 1.61c-2.337.383-9.875 3.392-16.75 6.686-19.27 9.232-34.604 15.792-36.912 15.792-.527 0-2.225.518-3.773 1.152-1.548.633-4.165 1.196-5.815 1.25-3.184.104-4.611 4.048-1.5 4.144.825.026 2.453.572 3.619 1.215 1.165.643 2.342.945 2.615.672.587-.587 3.212 5.446 3.244 7.455.026 1.612 1.497 2.471 7.022 4.094 5.766 1.695 7.293 3.142 8.37 7.934.951 4.232.935 4.267-2.501 5.703-1.901.795-3.907 1.167-4.457.827-.55-.34-1.655-.074-2.456.59-.801.665-1.463.816-1.471.336-.037-2.088-1.956 2.372-1.97 4.578-.012 1.906-.282 2.183-1.215 1.25-1.904-1.904-9.227-1.491-11.145.629-1.912 2.113-2.107 3.171-.584 3.171.59 0 1.747.675 2.572 1.5 1.333 1.333.721 1.5-5.513 1.5-7.688 0-8.038.235-9.678 6.498-.576 2.201-1.251 3.813-1.5 3.582-.249-.232-2.356.781-4.682 2.25-2.327 1.468-5.391 2.67-6.809 2.67-1.797 0-2.351.379-1.828 1.25.563.937.35.925-.852-.049-1.196-.969-1.785-1.004-2.32-.138-.395.638-.245 1.452.332 1.809.576.356 1.312 1.994 1.634 3.638.322 1.645.32 2.428-.004 1.74-.729-1.545-4.423-1.664-4.423-.143 0 .609.675.848 1.5.531 1.923-.738 1.901-.182-.071 1.791-1.829 1.829-3.54 2.069-3.179.446.137-.619-.343-1.341-1.068-1.606-.725-.265-1.234.129-1.132.875.46 3.336-.161 4.856-1.983 4.856-1.063 0-2.218.9-2.567 2-.349 1.1-1.279 2-2.067 2-.788 0-1.433.45-1.433 1s-.62 1-1.378 1c-.757 0-1.933.67-2.613 1.489-.68.819-1.638 1.24-2.129.937-.492-.304-1.063.038-1.269.761-2.053 7.189-3.116 10.392-3.589 10.813-2.35 2.09-3.101 9.785-.817 8.373.603-.372.856-.056.591.738-.283.848-1.89 1.389-4.13 1.389-4.13 0-4.048-.083-2.597 2.63.783 1.462.742 2.392-.15 3.468-1.672 2.014.679 6.402 3.431 6.402 1.884 0 17.956-9.959 20.15-12.486.55-.634 4.825-3.585 9.5-6.559 10.057-6.398 12.761-8.291 24.564-17.198 4.915-3.709 10.358-7.424 12.097-8.255 1.739-.831 5.011-3.057 7.272-4.946 2.262-1.89 5.002-3.718 6.09-4.063 1.087-.345 1.977-.968 1.977-1.384 0-.416 3.263-2.97 7.25-5.676s8.049-5.909 9.026-7.117c.977-1.209 2.743-2.505 3.924-2.879 1.181-.375 4.432-2.88 7.224-5.567 8.858-8.525 11.003-10.334 14.076-11.87 1.65-.825 3.662-2.4 4.47-3.5.809-1.1 2.43-2.9 3.604-4 1.173-1.1 4.787-4.533 8.03-7.629 3.243-3.096 7.021-5.963 8.396-6.372 3.487-1.037 5-2.432 5-4.608 0-1.185 1.274-2.397 3.498-3.326 1.924-.804 6.312-4.138 9.75-7.409a2610.8 2610.8 0 0 1 10.502-9.935c2.337-2.193 4.25-4.278 4.25-4.635 0-.984 7.035-6.988 9.144-7.804 1.021-.395 1.856-1.397 1.856-2.227 0-.83 1.078-2.215 2.396-3.079 1.317-.863 2.625-2.448 2.906-3.523.32-1.222 1.388-1.965 2.854-1.986 1.704-.023 2.814-1.033 4.064-3.696 2.08-4.429 1.808-4.825-2.318-3.387-3.799 1.324-11.832 1.447-13.784.21-1.1-.697-.981-1.003.583-1.499 2.433-.772 2.606-3.595.22-3.595-1.258 0-1.935 1.121-2.423 4.013m491.502-1.131c0 .55.45 1.278 1 1.618.55.34 1 .168 1-.382s-.45-1.278-1-1.618c-.55-.34-1-.168-1 .382M1004.5 1072c-1.588 2.569 2.107 3.622 5.434 1.549 1.18-.736 1.092-1.028-.5-1.651-2.753-1.078-4.223-1.048-4.934.102m551.375 2.5c-.069.275-.188.838-.265 1.25-.077.412-.409 1.2-.737 1.75s-.892 2.237-1.254 3.75c-.792 3.314-3.993 3.725-5.851.75-.687-1.1-1.591-2-2.009-2-1.202 0-.882 7.477.375 8.734.845.845.347 1.853-1.958 3.958-3.369 3.077-3.082 4.814.824 4.984 14.853.647 18.475.236 17.717-2.011-.248-.733-2.123-1.039-5.052-.825-3.567.26-4.803-.036-5.274-1.263-.824-2.148 1.333-4.577 4.065-4.577 3.343 0 3.891-1.23 1.388-3.117-1.908-1.44-2.047-1.933-.927-3.283.726-.874 1.089-2.47.807-3.547-.598-2.289 1.037-3.163 3.526-1.883 1.119.576 1.75.527 1.75-.135 0-.569-.675-1.035-1.5-1.035s-1.5-.45-1.5-1c0-.991-3.885-1.462-4.125-.5M1141 1076.559c0 .857.45 1.281 1 .941.55-.34 1-1.041 1-1.559s-.45-.941-1-.941-1 .702-1 1.559m396.039 9.894c-1.045 1.26-.979 1.989.366 4.042 2.346 3.58 3.987 3.215 3.201-.714-.834-4.172-1.979-5.241-3.567-3.328m-862.374 5.28c-2.947 4.768-6.126 46.538-5.346 70.244.972 29.542 6.06 45.717 19.333 61.458 5.458 6.472 15.969 14.348 14.686 11.003-.304-.791-.841-1.439-1.195-1.441-.354-.002-.676-1.464-.717-3.25-.04-1.786-.771-4.822-1.625-6.747-1.836-4.141-4.801-13.701-4.801-15.48 0-.688-.84-2.323-1.867-3.635-1.027-1.312-2.102-3.96-2.389-5.885-.288-1.925-1.438-5.975-2.557-9-1.118-3.025-3.48-10.225-5.248-16-1.768-5.775-3.576-10.735-4.018-11.023-2.862-1.861-4.633-33.489-2.978-53.2 1.131-13.475.632-20.134-1.278-17.044m-472.915 22.929c1.8.727 1.538 2.116-.5 2.649-1.206.315-.972.503.75.605 2.357.139 2.395.227.659 1.542-2.932 2.222.532 9.542 4.516 9.542 2.739 0 6.825-2.191 6.825-3.661 0-.736.45-1.339 1-1.339 2.928 0 .763-3.954-2.5-4.566-2.508-.47-3.5-1.183-3.5-2.514 0-1.321-.48-1.673-1.664-1.219-1.119.43-1.427.256-.941-.531.499-.808-.301-1.146-2.586-1.091-1.82.043-2.746.306-2.059.583m725.709 12.405c-.363.586-.389 1.336-.059 1.666.33.33.6.055.6-.612 0-.843 1.064-1.012 3.5-.555 2.294.43 3.5.274 3.5-.455 0-1.421-6.666-1.461-7.541-.044M1544.5 1133c.34.55 1.266 1 2.059 1 .793 0 1.441-.45 1.441-1s-.927-1-2.059-1c-1.132 0-1.781.45-1.441 1m-617.421 4.583c.048 1.165.285 1.402.604.605.289-.722.253-1.585-.079-1.917-.332-.332-.568.258-.525 1.312m165.328 11.167c-1.049 2.063-3.37 5.234-5.157 7.048-3.177 3.224-4.093 5.202-2.411 5.202 1.701 0 10.085-10.42 11.467-14.25 1.231-3.412-1.985-1.762-3.899 2m330.837 6.914c-1.986.801-.384 2.336 2.437 2.336 2.166 0 2.371-.233 1.319-1.5-1.305-1.573-1.707-1.662-3.756-.836m-539.975 1.029c.973.254 2.323.237 3-.037.677-.274-.119-.481-1.769-.461-1.65.02-2.204.244-1.231.498M1386 1157c0 .55.675 1 1.5 1s1.5-.45 1.5-1-.675-1-1.5-1-1.5.45-1.5 1m132 .81c0 .537.713 1.249 1.584 1.584.973.373 1.431.15 1.187-.581-.498-1.495-2.771-2.318-2.771-1.003m-621.513 4.169c.333.539.114 1.898-.487 3.021-1.298 2.426-.52 4.137 1.524 3.353.984-.378 1.179-1.062.598-2.099-.473-.846-.642-2.374-.375-3.396.27-1.033-.036-1.858-.689-1.858-.647 0-.904.441-.571.979m184.18 2.688c-.367.366-.667 1.131-.667 1.7 0 .626.466.567 1.183-.15.651-.651.951-1.416.667-1.7-.284-.284-.817-.217-1.183.15M1552 1167c0 1.333.667 2 2 2 2.373 0 2.684-2.523.418-3.393-2.294-.88-2.418-.809-2.418 1.393m15.223-.443c-2.657 1.86-2.874 3.979-.501 4.89 2.341.898-.175 2.509-2.833 1.814-1.196-.313-1.889.026-1.889.922 0 2.043 2.075 3.817 4.465 3.817 1.135 0 3.744.9 5.796 2 7.462 3.999 8.52 2.027 1.602-2.984-2.165-1.569-3.558-3.086-3.095-3.373 1.295-.8 8.173 1.001 10.055 2.634.922.8 3.027 1.773 4.677 2.163 1.65.389 3.906 1.553 5.014 2.586 1.107 1.033 3.653 2.564 5.658 3.401 2.005.838 3.798 1.915 3.986 2.393.188.479 1.691 1.202 3.34 1.607 1.649.404 2.774.533 2.5.286-.926-.837-17.479-13.233-19.998-14.975-1.375-.952-4.742-3.307-7.481-5.234-5.49-3.861-7.957-4.286-11.296-1.947m-489.659 2.15c-.542 1.425-.428 1.54.56.56.684-.679.991-1.486.683-1.793-.308-.308-.867.247-1.243 1.233m484.103 10.96c-1.247 1.246-.673 4.105 1.3 6.472l1.966 2.361.034-3.168c.053-5.067-1.402-7.564-3.3-5.665m-32.322 2.876c-.754 1.966.138 2.869 2.095 2.118.879-.337 1.276-1.238.936-2.123-.758-1.976-2.272-1.973-3.031.005m24.048 2.039c.334.87.621 2.557.637 3.75.026 1.799.187 1.9.952.593 1.074-1.835.241-5.925-1.206-5.925-.544 0-.717.712-.383 1.582m-4.33 1.168c-.034.688-.748 1.25-1.585 1.25-2.549 0-10.641 8.23-12.617 12.833-2.268 5.281-2.454 11.736-.371 12.901.819.459 1.885 2.952 2.369 5.54 1.603 8.581 5.141 10.457 5.141 2.726 0-5.021 1.345-7.415 5.46-9.717 1.01-.566 1.91-2.712 2.247-5.363.31-2.431.896-4.87 1.302-5.42 1.404-1.901 2.142-10.289.969-11.014-.615-.38-1.508-1.657-1.985-2.838-.476-1.182-.895-1.585-.93-.898M1371 1200c0 .55.702 1 1.559 1s1.281-.45.941-1c-.34-.55-1.041-1-1.559-1s-.941.45-.941 1m-1285.187.683c.721.289 1.584.253 1.916-.079.332-.332-.258-.568-1.312-.525-1.165.048-1.402.285-.604.604m1482.499 5.567c.226 1.513-.003 2.75-.51 2.75-.506 0-.661.419-.345.931.317.512.118 1.213-.441 1.559-.559.345-1.014 3.639-1.012 7.319.004 7.276 2.051 12.08 6.063 14.227 1.733.927 2.014.903 1.382-.118-1.067-1.728-1.58-5.85-1.926-15.507-.188-5.254-.874-9.108-1.956-11l-1.667-2.911.412 2.75M1422 1208.5c0 .833.889 1.5 2 1.5s2-.667 2-1.5-.889-1.5-2-1.5-2 .667-2 1.5m153 6c-.871 1.05-.908 1.538-.122 1.625 1.317.147 2.086.351 4.122 1.097.825.302 3.525 1.101 6 1.775 2.475.674 6.188 2.085 8.25 3.135 2.063 1.05 3.75 1.602 3.75 1.228 0-1.314-6.196-6.197-9.332-7.356-1.743-.644-3.949-1.583-4.904-2.087-2.62-1.383-6.366-1.102-7.764.583m-350.355 22c.878 4.04 4.995 11.864 7.379 14.022 4.848 4.387 2.834-4.336-2.279-9.871-1.235-1.337-3.034-3.493-3.998-4.791l-1.753-2.36.651 3m200.001 12.001c-1.57.819-3.239 1.251-3.709.96-1.61-.995-9.799 5.4-9.905 7.735-.041.898 9.376-1.882 14.144-4.175 3.752-1.805 5.824-1.207 5.824 1.679 0 .715.723 1.3 1.607 1.3 1.055 0 1.398-.544 1-1.582-.334-.87-.607-2.188-.607-2.928 0-3.826-4.003-5.258-8.354-2.989m-213.979 4.166c-.367.366-.667 1.764-.667 3.106 0 1.393-1.044 3.26-2.435 4.355-1.978 1.555-5.565 10.144-5.565 13.323 0 .354 1.8-.803 4-2.571 2.2-1.768 4-3.766 4-4.44 0-.674.611-1.46 1.358-1.747 1.721-.661 2.774-5.783 1.992-9.693-.592-2.958-1.377-3.64-2.683-2.333m225.333 4.892c0 .857.457 1.276 1.016.931.559-.346.758-1.047.441-1.559-.857-1.387-1.457-1.129-1.457.628m-43.17 3.464c-6.662 1.124-9.532 2.906-4.747 2.947 1.971.016 3.918-.308 4.327-.72.409-.412 2.847-1.259 5.417-1.881 5.35-1.295 2.002-1.527-4.997-.346m-137.85 4.501c-1.932 2.329-.554 2.767 1.514.482.999-1.103 1.351-2.006.783-2.006-.567 0-1.601.686-2.297 1.524m-123.98 1.917c0 .857.45 1.559 1 1.559s1-.423 1-.941-.45-1.219-1-1.559c-.55-.34-1 .084-1 .941m113.222 5.693c-4.117 1.892-4.978 4.559-1.149 3.557 1.016-.265 3.552.126 5.637.869 7.481 2.669 9.457 1.07 4.838-3.914-2.865-3.091-3.622-3.133-9.326-.512M1258 1272c0 .55.675 1 1.5 1s1.5-.45 1.5-1-.675-1-1.5-1-1.5.45-1.5 1m-281.968 1.75c.055 3.045 2.596 5.424 5.42 5.075l2.623-.325-2.981-3.25c-3.314-3.612-5.11-4.145-5.062-1.5m436.968-.691c0 .582.45.781 1 .441s1-.816 1-1.059-.45-.441-1-.441-1 .477-1 1.059m-192 1.868c0 .59-.845 1.073-1.878 1.073-1.032 0-2.437.675-3.122 1.5-1.084 1.306-.438 1.5 5 1.5h6.244l-1.492-2.25c-1.589-2.399-4.752-3.612-4.752-1.823m276.5.073c.34.55.816 1 1.059 1s.441-.45.441-1-.477-1-1.059-1-.781.45-.441 1m-64.5 1.878c0 1.22.638 2.122 1.5 2.122.825 0 1.5-.395 1.5-.878 0-.482-.675-1.437-1.5-2.122-1.253-1.04-1.5-.896-1.5.878m-202.5.586-3 1.374 3.668.081c4.341.096 7.039-.775 6.267-2.024-.777-1.257-3.421-1.04-6.935.569m-31 .536c-.34.55.084 1 .941 1s1.559-.45 1.559-1-.423-1-.941-1-1.219.45-1.559 1" fill-rule="evenodd"/></svg>